<svg viewBox="0 0 330 200" xmlns="http://www.w3.org/2000/svg"><g><g><g><g><g><line x1="53.172000885009766" y1="176.63999938964844" x2="48.172000885009766" y2="176.63999938964844" style="visibility: inherit;" fill="rgb(0, 0, 0)" stroke="rgb(204, 204, 204)" stroke-width="1px"></line><line x1="53.172000885009766" y1="160.58181762695312" x2="48.172000885009766" y2="160.58181762695312" style="visibility: inherit;" fill="rgb(0, 0, 0)" stroke="rgb(204, 204, 204)" stroke-width="1px"></line><line x1="53.172000885009766" y1="144.52363586425778" x2="48.172000885009766" y2="144.52363586425778" style="visibility: inherit;" fill="rgb(0, 0, 0)" stroke="rgb(204, 204, 204)" stroke-width="1px"></line><line x1="53.172000885009766" y1="128.46545410156244" x2="48.172000885009766" y2="128.46545410156244" style="visibility: inherit;" fill="rgb(0, 0, 0)" stroke="rgb(204, 204, 204)" stroke-width="1px"></line><line x1="53.172000885009766" y1="112.40727233886713" x2="48.172000885009766" y2="112.40727233886713" style="visibility: inherit;" fill="rgb(0, 0, 0)" stroke="rgb(204, 204, 204)" stroke-width="1px"></line><line x1="53.172000885009766" y1="96.34909057617197" x2="48.172000885009766" y2="96.34909057617197" style="visibility: inherit;" fill="rgb(0, 0, 0)" stroke="rgb(204, 204, 204)" stroke-width="1px"></line><line x1="53.172000885009766" y1="80.29090881347665" x2="48.172000885009766" y2="80.29090881347665" style="visibility: inherit;" fill="rgb(0, 0, 0)" stroke="rgb(204, 204, 204)" stroke-width="1px"></line><line x1="53.172000885009766" y1="64.2327270507813" x2="48.172000885009766" y2="64.2327270507813" style="visibility: inherit;" fill="rgb(0, 0, 0)" stroke="rgb(204, 204, 204)" stroke-width="1px"></line><line x1="53.172000885009766" y1="48.174545288085994" x2="48.172000885009766" y2="48.174545288085994" style="visibility: inherit;" fill="rgb(0, 0, 0)" stroke="rgb(204, 204, 204)" stroke-width="1px"></line><line x1="53.172000885009766" y1="32.11636352539065" x2="48.172000885009766" y2="32.11636352539065" style="visibility: inherit;" fill="rgb(0, 0, 0)" stroke="rgb(204, 204, 204)" stroke-width="1px"></line><line x1="53.172000885009766" y1="16.05818176269534" x2="48.172000885009766" y2="16.05818176269534" style="visibility: inherit;" fill="rgb(0, 0, 0)" stroke="rgb(204, 204, 204)" stroke-width="1px"></line><line x1="53.172000885009766" y1="0" x2="48.172000885009766" y2="0" style="visibility: inherit;" fill="rgb(0, 0, 0)" stroke="rgb(204, 204, 204)" stroke-width="1px"></line></g><g transform="translate(43.172000885009766, 0)"><text style="text-anchor: end; visibility: hidden; font-family: &quot;Helvetica Neue&quot;, sans-serif; font-size: 12px; font-weight: 200;" x="0" y="176.63999938964844" dx="0em" dy="0.3em" fill="rgb(50, 49, 63)" stroke="none" stroke-width="1px">0.89</text><text style="text-anchor: end; visibility: inherit; font-family: &quot;Helvetica Neue&quot;, sans-serif; font-size: 12px; font-weight: 200;" x="0" y="160.58181762695312" dx="0em" dy="0.3em" fill="rgb(50, 49, 63)" stroke="none" stroke-width="1px">0.9</text><text style="text-anchor: end; visibility: hidden; font-family: &quot;Helvetica Neue&quot;, sans-serif; font-size: 12px; font-weight: 200;" x="0" y="144.52363586425778" dx="0em" dy="0.3em" fill="rgb(50, 49, 63)" stroke="none" stroke-width="1px">0.91</text><text style="text-anchor: end; visibility: inherit; font-family: &quot;Helvetica Neue&quot;, sans-serif; font-size: 12px; font-weight: 200;" x="0" y="128.46545410156244" dx="0em" dy="0.3em" fill="rgb(50, 49, 63)" stroke="none" stroke-width="1px">0.92</text><text style="text-anchor: end; visibility: hidden; font-family: &quot;Helvetica Neue&quot;, sans-serif; font-size: 12px; font-weight: 200;" x="0" y="112.40727233886713" dx="0em" dy="0.3em" fill="rgb(50, 49, 63)" stroke="none" stroke-width="1px">0.93</text><text style="text-anchor: end; visibility: inherit; font-family: &quot;Helvetica Neue&quot;, sans-serif; font-size: 12px; font-weight: 200;" x="0" y="96.34909057617197" dx="0em" dy="0.3em" fill="rgb(50, 49, 63)" stroke="none" stroke-width="1px">0.94</text><text style="text-anchor: end; visibility: hidden; font-family: &quot;Helvetica Neue&quot;, sans-serif; font-size: 12px; font-weight: 200;" x="0" y="80.29090881347665" dx="0em" dy="0.3em" fill="rgb(50, 49, 63)" stroke="none" stroke-width="1px">0.95</text><text style="text-anchor: end; visibility: inherit; font-family: &quot;Helvetica Neue&quot;, sans-serif; font-size: 12px; font-weight: 200;" x="0" y="64.2327270507813" dx="0em" dy="0.3em" fill="rgb(50, 49, 63)" stroke="none" stroke-width="1px">0.96</text><text style="text-anchor: end; visibility: hidden; font-family: &quot;Helvetica Neue&quot;, sans-serif; font-size: 12px; font-weight: 200;" x="0" y="48.174545288085994" dx="0em" dy="0.3em" fill="rgb(50, 49, 63)" stroke="none" stroke-width="1px">0.97</text><text style="text-anchor: end; visibility: inherit; font-family: &quot;Helvetica Neue&quot;, sans-serif; font-size: 12px; font-weight: 200;" x="0" y="32.11636352539065" dx="0em" dy="0.3em" fill="rgb(50, 49, 63)" stroke="none" stroke-width="1px">0.98</text><text style="text-anchor: end; visibility: hidden; font-family: &quot;Helvetica Neue&quot;, sans-serif; font-size: 12px; font-weight: 200;" x="0" y="16.05818176269534" dx="0em" dy="0.3em" fill="rgb(50, 49, 63)" stroke="none" stroke-width="1px">0.99</text><text style="text-anchor: end; visibility: hidden; font-family: &quot;Helvetica Neue&quot;, sans-serif; font-size: 12px; font-weight: 200;" x="0" y="0" dx="0em" dy="0.3em" fill="rgb(50, 49, 63)" stroke="none" stroke-width="1px">1</text></g><line x1="53.172000885009766" y1="0" x2="53.172000885009766" y2="176.63999938964844" fill="rgb(0, 0, 0)" stroke="rgb(204, 204, 204)" stroke-width="1px"></line></g></g><g transform="translate(53, 0)" clip-path="url(#clip_0)"><clipPath id="clip_0"><rect width="276" height="176"></rect></clipPath><g><g><g><line x1="0" y1="0" x2="0" y2="176.63999938964844" fill="rgb(0, 0, 0)" stroke="rgb(60, 60, 60)" stroke-width="1px" opacity="0.25"></line><line x1="23.068999926249184" y1="0" x2="23.068999926249184" y2="176.63999938964844" fill="rgb(0, 0, 0)" stroke="rgb(60, 60, 60)" stroke-width="1px" opacity="0.25"></line><line x1="46.13799985249837" y1="0" x2="46.13799985249837" y2="176.63999938964844" fill="rgb(0, 0, 0)" stroke="rgb(60, 60, 60)" stroke-width="1px" opacity="0.25"></line><line x1="69.20699977874756" y1="0" x2="69.20699977874756" y2="176.63999938964844" fill="rgb(0, 0, 0)" stroke="rgb(60, 60, 60)" stroke-width="1px" opacity="0.25"></line><line x1="92.27599970499674" y1="0" x2="92.27599970499674" y2="176.63999938964844" fill="rgb(0, 0, 0)" stroke="rgb(60, 60, 60)" stroke-width="1px" opacity="0.25"></line><line x1="115.34499963124594" y1="0" x2="115.34499963124594" y2="176.63999938964844" fill="rgb(0, 0, 0)" stroke="rgb(60, 60, 60)" stroke-width="1px" opacity="0.25"></line><line x1="138.41399955749512" y1="0" x2="138.41399955749512" y2="176.63999938964844" fill="rgb(0, 0, 0)" stroke="rgb(60, 60, 60)" stroke-width="1px" opacity="0.25"></line><line x1="161.48299948374432" y1="0" x2="161.48299948374432" y2="176.63999938964844" fill="rgb(0, 0, 0)" stroke="rgb(60, 60, 60)" stroke-width="1px" opacity="0.25"></line><line x1="184.55199940999347" y1="0" x2="184.55199940999347" y2="176.63999938964844" fill="rgb(0, 0, 0)" stroke="rgb(60, 60, 60)" stroke-width="1px" opacity="0.25"></line><line x1="207.62099933624268" y1="0" x2="207.62099933624268" y2="176.63999938964844" fill="rgb(0, 0, 0)" stroke="rgb(60, 60, 60)" stroke-width="1px" opacity="0.25"></line><line x1="230.68999926249188" y1="0" x2="230.68999926249188" y2="176.63999938964844" fill="rgb(0, 0, 0)" stroke="rgb(60, 60, 60)" stroke-width="1px" opacity="0.25"></line><line x1="253.75899918874103" y1="0" x2="253.75899918874103" y2="176.63999938964844" fill="rgb(0, 0, 0)" stroke="rgb(60, 60, 60)" stroke-width="1px" opacity="0.25"></line><line x1="276.82799911499023" y1="0" x2="276.82799911499023" y2="176.63999938964844" fill="rgb(0, 0, 0)" stroke="rgb(60, 60, 60)" stroke-width="1px" opacity="0.25"></line></g><g><line x1="0" y1="176.63999938964844" x2="276.82799911499023" y2="176.63999938964844" fill="rgb(0, 0, 0)" stroke="rgb(60, 60, 60)" stroke-width="1px" opacity="0.25"></line><line x1="0" y1="160.58181762695312" x2="276.82799911499023" y2="160.58181762695312" fill="rgb(0, 0, 0)" stroke="rgb(60, 60, 60)" stroke-width="1px" opacity="0.25"></line><line x1="0" y1="144.52363586425778" x2="276.82799911499023" y2="144.52363586425778" fill="rgb(0, 0, 0)" stroke="rgb(60, 60, 60)" stroke-width="1px" opacity="0.25"></line><line x1="0" y1="128.46545410156244" x2="276.82799911499023" y2="128.46545410156244" fill="rgb(0, 0, 0)" stroke="rgb(60, 60, 60)" stroke-width="1px" opacity="0.25"></line><line x1="0" y1="112.40727233886713" x2="276.82799911499023" y2="112.40727233886713" fill="rgb(0, 0, 0)" stroke="rgb(60, 60, 60)" stroke-width="1px" opacity="0.25"></line><line x1="0" y1="96.34909057617197" x2="276.82799911499023" y2="96.34909057617197" fill="rgb(0, 0, 0)" stroke="rgb(60, 60, 60)" stroke-width="1px" opacity="0.25"></line><line x1="0" y1="80.29090881347665" x2="276.82799911499023" y2="80.29090881347665" fill="rgb(0, 0, 0)" stroke="rgb(60, 60, 60)" stroke-width="1px" opacity="0.25"></line><line x1="0" y1="64.2327270507813" x2="276.82799911499023" y2="64.2327270507813" fill="rgb(0, 0, 0)" stroke="rgb(60, 60, 60)" stroke-width="1px" opacity="0.25"></line><line x1="0" y1="48.174545288085994" x2="276.82799911499023" y2="48.174545288085994" fill="rgb(0, 0, 0)" stroke="rgb(60, 60, 60)" stroke-width="1px" opacity="0.25"></line><line x1="0" y1="32.11636352539065" x2="276.82799911499023" y2="32.11636352539065" fill="rgb(0, 0, 0)" stroke="rgb(60, 60, 60)" stroke-width="1px" opacity="0.25"></line><line x1="0" y1="16.05818176269534" x2="276.82799911499023" y2="16.05818176269534" fill="rgb(0, 0, 0)" stroke="rgb(60, 60, 60)" stroke-width="1px" opacity="0.25"></line><line x1="0" y1="0" x2="276.82799911499023" y2="0" fill="rgb(0, 0, 0)" stroke="rgb(60, 60, 60)" stroke-width="1px" opacity="0.25"></line></g></g></g><g><g><line x1="0" y1="1605.8181762695315" x2="276.82799911499023" y2="1605.8181762695315" fill="rgb(0, 0, 0)" stroke="rgb(153, 153, 153)" stroke-width="1.5px"></line></g></g><g><g><line x1="23.068999926249184" y1="0" x2="23.068999926249184" y2="176.63999938964844" fill="rgb(0, 0, 0)" stroke="rgb(153, 153, 153)" stroke-width="1.5px"></line></g></g><g><g><g><g><g><path style="fill: none;" stroke="rgb(255, 112, 67)" stroke-width="2px" d="M33.77301589202881,177.40645314887237L34.003705891291304,175.684803484056L34.442016889890034,173.54742470801384L34.92646588834127,170.6804293557532L35.3186388870875,167.80783291340154L35.43398388671875,165.844185494959L36.05684688472748,162.64926010131038L36.28753688398997,159.91601569491806L36.425950883547465,157.6518591813186L36.5874338830312,155.5250863563495L36.61050288295746,154.24902266145278L37.37177988052368,151.7547473100322L37.41791788037618,150.21017184547458L37.694745879491165,148.75523720422743L37.85622887897492,147.3540870569627L37.87929787890116,146.46538671486786L37.92543587875367,145.78809746270232L37.99464287853241,145.28570340392335L38.04078087838491,144.79218766800568L38.31760887749989,143.72779930954283L38.548298876762395,142.41690788503394L39.54026587359111,139.08548501089035L39.72481787300109,136.990572493235L39.90936987241109,135.49353542825122L40.11699087174733,134.35522363487058L40.41688787078857,133.04802668883983L40.50916387049357,132.0716292205712L40.716784869829816,131.05366017025798L40.80906086953481,130.39483020064097L40.85519886938731,129.90351171139L40.901336869239806,129.6567308715799L41.06281986872356,129.17255230582253L41.1781648683548,128.49792485075633L41.224302868207296,128.04509983828729L41.33964786783854,127.58136381584448L41.38578586769104,127.15905315546917L41.47806186739604,126.76163599802288L41.57033786710103,126.28309614916475L41.70875186665853,125.85190319293963L41.731820866584776,125.5451771654643L42.26240786488851,124.35277307767637L42.354683864593504,123.58932037126334L43.11596086215973,121.8827907217223L43.27744386164347,120.61878337760709L43.41585786120097,119.6202894167475L43.73882386016846,118.30092437705986L43.831099859873454,117.3172643382857L43.9925828593572,116.63100952185181L44.0387208592097,116.07522587077054L44.223272858619694,115.54967637947142L44.546238857587184,114.65814706843004L44.56930785751343,114.07521922806495L44.79999785677592,113.53338322319561L44.86920485655467,113.11226111279336L45.07682585589091,112.66750854590165L45.26137785530091,112.16056745137632L45.46899885463715,111.90441304840145L45.492067854563395,111.65469989913564L45.63048185412089,111.21677220144525L45.65355085404714,110.95401558283095L45.76889585367839,110.46021326410231L46.18413785235087,109.49171174912259L46.253344852129615,108.86260058639424L46.460965851465865,108.3890750955878L47.153035849253335,107.28867063045148L47.45293284829457,106.24430763575815L47.59134684785207,105.28154149138196L47.660553847630815,104.84795085166614L47.70669184748332,104.58779646783668L47.798967847188315,104.43170383753886L47.93738184674581,104.09795870496981L48.052726846377055,103.84970137168789L48.28341684563954,103.60468817854928L48.42183084519704,103.21762899396448L48.53717584482829,102.88933469004398L48.76786584409078,102.45226855330111L49.73676384099325,101.32572944686247L49.82903984069824,100.64980598299928L49.852108840624496,100.24425190468152L49.87517784055074,100.00091945769091L50.290419839223226,99.6628406888462L50.590316838264464,99.3159626663182L50.8902138373057,98.6756669977608L51.490007835388184,97.95537953475511L51.766835834503176,97.4271482637821L52.020594833691916,97.11020950119838L52.089801833470666,96.87203598990759L52.159008833249416,96.53705258248287L52.62038883177439,95.99995247615696L52.758802831331884,95.4856131117111L52.92028583081564,94.98496847808204L53.05869983037313,94.6845816979046L53.42780382919312,94.1682012822382L53.49701082897187,93.81036277909804L53.7507698281606,93.11548056843263L53.81997682793935,92.60253073455279L53.88918382771809,92.24675058048456L53.91225282764435,91.9852722343033L55.019564824104314,91.15612681716298L55.08877182388306,90.61062931313839L55.15797882366181,90.28333081072378L55.18104782358805,90.08695170927496L55.68856582196553,89.77704494775553L55.965393821080525,89.49508038336302L56.19608382034302,89.08581209033697L56.288359820048015,88.69618206761145L56.865084818204245,88.03027348462409L56.88815381813049,87.63072833483174L57.14191281731923,87.3429527055272L57.32646481672923,86.97824631298302L57.41874081643422,86.61535343054669L57.46487881628673,86.34960744734457L58.203086813926696,85.42188094051114L58.2953628136317,84.86524503641105L58.87208781178792,84.09909463891033L59.24119181060791,83.39931484601914L59.264260810534154,82.93143671654414L59.610295809427896,82.4106202844686L59.7025718091329,81.95409966400209L60.07167580795288,81.58412849855272L60.094744807879124,81.36214579928313L60.60226280625661,80.74881535662897L60.71760780588786,80.38081709103643L60.832952805519106,80.11196959225185L60.90215980529785,79.90265083924074L61.017504804929104,79.72904933369371L61.086711804707846,79.5288679228847L61.36353980382284,79.12065926826837L61.54809180323283,78.77967528232921L61.709574802716574,78.57508489076577L61.87105780220032,78.35631014834682L62.07867880153656,78.17703504915512L62.17095480124156,78.021421450211L62.217092801094054,77.83203278336377L62.26323080094655,77.67038932951512L62.332437800725295,77.47738274972527L62.49392080020905,77.26552000868189L62.70154179954529,77.04238185657493L62.93223179880778,76.81244017214138L63.02450779851277,76.72252370091041L63.07064579836528,76.57251502500237L63.13985279814402,76.4825098194575L63.255197797775274,76.23646568116912L63.32440479755402,75.99278040502655L63.34747379748026,75.75054873186046L63.80885379600525,75.50915093479104L64.0164747953415,75.22028149532821L64.154888794899,74.90289078474085L64.31637179438273,74.56842559716722L64.33944079430898,74.31973623088294L64.54706179364523,74.12247407168311L64.70854479312897,74.00411677616334L65.1929937915802,73.83708189137072L65.2852697912852,73.68885070675472L65.51595979054768,73.31181218785413L65.60823579025268,73.08558907651391L65.81585678958892,72.70976565531902L66.11575378863017,72.29219230195197L66.18496078840892,71.94562778245103L66.32337478796642,71.68967881701008L66.3695127878189,71.48806089831646L67.15385878531139,70.88694932400782L67.29227278486889,70.4782338399934L67.68444578361512,69.99291499519416L67.9151357828776,69.55769292709344L67.98434278265634,69.2965596862332L68.03048078250885,69.13987974171705L68.44572278118133,68.90180272809741L68.76868878014882,68.56691550496433L68.81482678000133,68.36598317108437L69.23006877867381,68.05334447010631L69.3223447783788,67.9137715032597L69.5068967777888,67.8780379768922L69.89906977653503,67.80858760733125L70.03748377609253,67.76691738559472L70.59113977432251,67.54983595190275L70.89103677336375,67.37157683794698L70.96024377314251,67.31263162331409L70.98331277306875,67.27726449453428L71.02945077292124,67.16002370978553L71.07558877277374,67.04166898519601L71.16786477247874,67.01866640418261L71.26014077218375,66.90884434809385L71.42162377166748,66.84295111444057L71.76765877056121,66.8034151742486L72.55200476805369,66.53960405574297L72.64428076775869,66.23724833772967L72.80576376724244,65.91180414570069L73.01338476657867,65.62047883731364L73.29021276569367,65.39767339854127L73.52090276495616,65.21597988153738L73.56704076480865,65.05895351759469L73.61317876466116,64.91668915979986L73.72852376429239,64.83133054512297L73.79773076407115,64.78011537631687L73.98228276348114,64.7493862750332L74.07455876318613,64.7789973536921L74.53593876171112,64.74871546145832L74.65128376134237,64.63452581863743L74.67435276126861,64.56601203294476L74.72049076112113,64.33282446087892L74.78969776089986,64.1449016638992L74.88197376060486,63.98413773197103L74.90504276053112,63.88767937281419L75.06652576001485,63.68573531041008L75.1357327597936,63.564568872967556L75.25107775942485,63.49186901050206L75.68938875802357,63.20819782432103L75.92007875728606,62.989946573183175L76.05849275684356,62.81098556876026L76.19690675640106,62.65559871236617L76.28918275610606,62.56236659852969L76.56601075522106,62.36235828331775L76.5890797551473,62.24235329419085L77.16580475330353,62.07432979323377L77.37342575263978,61.925505438919345L78.1808407500585,61.69214177942075L78.20390974998473,61.55212358372171L78.25004774983724,61.468112666302076L79.2650837465922,61.03358580023864L79.44963574600219,60.62880063369077L79.61111874548595,60.38592953376207L79.65725674533844,60.19219662006455L79.70339474519093,60.075956871845904L79.81873974482218,60.054223276655065L80.3954647429784,59.84914210457927L80.41853374290466,59.67804486190465L80.64922374216715,59.623435055729075L80.69536174201964,59.54262063259446L80.81070674165089,59.39811147123288L81.13367274061838,59.31140597441588L81.27208674017588,59.2113724225854L81.47970773951212,59.05529349831768L81.82574273840585,58.81761538253612L81.91801873811086,58.675008513066956L81.96415673796335,58.58944439138568L82.5408817361196,58.1059370633359L82.81770973523459,57.67180190528495L83.04839973449707,57.075172462894386L83.18681373405457,56.7171947974599L83.5789867328008,56.40638769071869L83.7174007323583,56.21990342667384L83.74046973228454,56.10801286824696L84.06343573125203,55.99286827945048L84.20184973080953,55.8757712724324L84.31719473044078,55.70945427505207L84.84778172874451,55.36957452223304L85.00926472822825,55.02161590932069L85.1246097278595,54.71678194840372L85.42450672690073,54.53388157185351L85.58598972638447,54.424141345923516L85.93202472527823,54.214266449144276L86.20885272439321,53.992321003596146L86.27805972417195,53.85915373626722L86.60102572313944,53.73120483644078L87.40844072055816,53.558414989064076L87.43150972048443,53.454741080638044L87.45457872041067,53.39253673558248L87.86982071908315,53.40322438228944L88.21585571797688,53.169547415923134L89.32316771443685,52.78925168171274L89.53078871377309,52.60912278061565L89.73840971310933,52.501045439957466L89.87682371266683,52.38815049613338L90.36127271111806,52.27240327609856L90.40741071097057,52.154944690337246L90.4304797108968,52.084469538880626L91.51472270743052,51.7060743861353L91.69927470684051,51.33496824757816L92.22986170514424,51.1123045644439L92.43748270448049,50.93069610082301L92.52975870418548,50.82173102265044L92.62203470389049,50.80436222948721L92.89886270300548,50.841951207329586L92.96806970278422,50.864504594035L93.15262170219422,50.830026372317946L93.22182870197295,50.76132918554747L93.77548470020294,50.335952272184684L93.86776069990795,50.032715870426784L93.91389869976044,49.85077402937203L94.55983069769542,49.741608924739126L95.09041769599915,49.38801005382828L95.43645269489288,49.127840477541554L95.62100469430287,48.92372847802902L95.73634969393412,48.70520248515216L95.85169469356536,48.574086889425985L95.99010869312286,48.543466071419516L96.35921269194286,48.42903478744611L96.77445469061534,48.21634525584088L96.7975236905416,48.04072128313737L96.95900669002533,47.887298360086106L97.02821368980408,47.79524460625544L97.58186968803405,47.7400123539571L97.6510766878128,47.61085249509716L97.81255968729656,47.53335657978138L97.8817666870753,47.43884877685136L97.90483568700155,47.38214409509354L97.95097368685404,47.39613153977899L97.9740426867803,47.40452400659032L98.55076768493652,47.36154923293688L98.75838868427277,47.431784876225606L99.31204468250274,47.23383670780822L99.49659668191273,47.11506780675785L99.81956268088022,46.94778595864673L99.84263168080649,46.84741684978019L100.23480467955271,46.787195384460034L100.90380567741394,46.84708301274878L100.94994367726643,46.83500533598166L101.18063367652893,46.82775872992144L101.57280667527517,46.77540051254479L101.68815167490642,46.69597532837858L102.19566967328389,46.55226142470943L102.38022167269389,46.51408162193695L102.63398067188264,46.44312520084446L102.68011867173513,46.400551348188856L102.84160167121887,46.32699678285519L102.98001567077637,46.234853789914695L103.1414986702601,46.131557740410045L103.2799126698176,46.11759036444744L103.34911966959636,46.06119968512968L103.7412926683426,45.97935502379863L104.01812066745757,45.97825848074021L104.08732766723632,45.977600554905194L104.24881066672008,45.92919554566393L104.61791466554006,45.80409374694963L104.66405266539256,45.68102241398083L104.80246666495005,45.60717961419948L104.89474266465506,45.56287393433061L105.26384666347504,45.392259765188214L105.65601966222127,45.24184272427365L106.11739966074626,45.10358224598454L106.53264165941874,45.02062595901114L106.57877965927125,44.9708521868271L106.62491765912374,44.940987923516616L106.6941246589025,44.92306936553038L106.76333165868122,44.86430797699819L107.15550465742747,44.8290511438789L107.40926365661622,44.71187653652663L107.7322296555837,44.689582025855515L108.42429965337118,44.532136272543084L108.47043765322367,44.43766882055553L109.02409365145365,44.38098834936298L109.11636965115865,44.29896981290716L109.16250765101114,44.201748437293446L109.30092165056864,44.095405358184706L109.3701286503474,43.935540717549856L109.41626665019989,43.79161167942877L109.62388764953614,43.65724400281573L109.78537064901988,43.57662339684791L110.08526764806112,43.57626128700761L110.26981964747111,43.57604402110343L110.56971664651235,43.62392391530142L110.61585464636485,43.65265185181988L110.6850616461436,43.66988861373119L111.05416564496359,43.72824092461832L111.16951064459484,43.763252311150694L111.21564864444733,43.78425914306982L111.44633864370982,43.74885298848119L111.5386146434148,43.727609295727916L112.20761564127604,43.81092187324535L112.32296064090728,43.86090941975576L112.48444364039104,43.890901947662286L113.499479637146,43.908897464406124L113.684031636556,44.015715281933154L113.84551463603974,44.079805972449265L113.93779063574473,44.118260386758976L114.19154963493347,44.141333035344815L114.32996363449097,44.10716637075592L114.46837763404845,44.08666637200267L114.97589563242595,44.12237662649099L115.2296546316147,44.191813032924415L115.34499963124594,44.233474876784356L115.55262063058217,44.210461729360105L115.57568963050842,44.2926743483861L115.8525176296234,44.245981412321015L116.10627662881215,44.21796565068203L116.17548362859091,44.15314593995822L116.40617362785339,44.11425411352408L117.49041662438711,44.09091901766345L117.60576162401836,44.076917960147114L117.6288306239446,44.06851732563737L117.8595206232071,44.063476944931494L119.54355761782328,43.77235290837703L119.79731661701203,43.50161969327493L119.82038561693828,43.387228303642644L119.86652361679077,43.31859346986326L119.91266161664326,43.27741256959578L119.98186861642202,43.25270402943514L120.00493761634827,43.2378789053389L120.5816626145045,43.325004338361765L120.69700761413574,43.42528985191578L120.7662146139145,43.533471413788504L120.95076661332449,43.59838035091224L121.20452561251322,43.541305205705726L121.41214661184947,43.31498081793154L121.48135361162822,43.227196439007656L121.50442261155446,43.17452581165327L121.8504576104482,43.142923435240476L122.21956160926818,43.1239620093929L122.35797560882568,43.160633693313486L122.45025160853069,43.18263670366599L122.65787260786692,43.19583850987726L122.70401060771941,43.203759593604246L122.91163160705567,43.20851224384043L123.00390760676066,43.163315294552945L123.2576666059494,43.04017661749961L123.85746060403189,42.96629341126766L124.06508160336811,42.92196348752853L124.41111660226187,42.8473552795447L124.57259960174561,42.802590354754415L124.71101360130311,42.775731399880186L124.80328960100809,42.75961602695571L124.82635860093436,42.74994680320091L125.26466959953308,42.74414526894802L125.33387659931182,42.740664348396365L126.16436059665679,42.6425170028958L126.30277459621429,42.58362859559546L126.64880959510803,42.644354344384766L126.69494759496052,42.680789793658306L127.08712059370677,42.5105717625722L127.11018959363301,42.40844094392071L127.54850059223175,42.39517270647002L127.571569592158,42.33920151025947L127.64077659193676,42.305618792532925L127.84839759127298,42.237458908156725L128.10215659046173,42.19656297753099L128.67888158861797,42.316056180376734L128.7480885883967,42.38775210208402L129.00184758758544,42.430769655108406L129.0710545873642,42.45658018692308L129.1171925872167,42.472066506011885L129.1633305870692,42.48135829746522L129.4401585861842,42.43892311859676L129.83233158493042,42.36545175753537L130.31678058338164,42.22534843341779L130.4782635828654,42.285317200168436L130.66281558227539,42.22527795273794L130.7550915819804,42.237264658019996L130.91657458146412,42.19644642744882L130.93964358139038,42.12394523536588L130.96271258131662,42.12845477385642L131.19340258057912,42.08315024321041L131.79319657866162,42.055967524822904L131.90854157829284,42.03965789379038L132.27764557711282,41.98186186143053L132.53140457630158,41.99519449575496L132.6236805760066,42.00319407634956L132.64674957593283,42.00799382470635L132.83130157534282,42.010873673720425L132.9697155749003,42.012601583128884L133.03892257467905,42.01363832877388L133.2465435740153,42.01426037616085L133.33881957372031,42.01463360459303L133.50030257320404,42.01485754165233L133.52337157313028,42.01499190388793L133.6617855726878,42.0150725212294L133.80019957224528,42.01512089163421L133.84633757209778,42.01514991387705L133.91554457187652,41.77507777283225L134.72295956929526,41.727054995685904L134.99978756841026,41.65023107565804L135.43809856700898,41.60413672364126L135.48423656686148,41.57648011243114L135.96868556531268,41.51187589196462L136.4300655638377,41.52112361342529L136.98372156206767,41.4786619925612L137.05292856184641,41.45318502004264L137.35282556088765,41.43789883653159L137.53737756029764,41.476737380165474L137.7449985596339,41.404019998864925L137.81420555941264,41.45641007756518L137.86034355926515,41.391823617304766L137.88341255919138,41.49710250236953L138.89844855594635,41.56026983340857L139.03686255550383,41.550159978291504L139.10606955528257,41.49608381148093L139.26755255476633,41.41562785765416L139.56744955380756,41.415364539098505L139.61358755366007,41.41520654796514L139.6366565535863,41.41511175328506L139.79813955307006,41.31899608330758L140.21338155174254,41.21331642758079L140.74396855004628,41.24596742731407L140.85931354967755,41.21750948772498L141.3206935482025,41.200434723971455L141.36683154805502,41.19018986571933L141.5052455476125,41.18404295076806L142.10503954569498,41.27641359496681L142.22038454532625,41.33183598148605L142.61255754407247,41.36508941339764L143.02779954274496,41.38504147254457L143.21235154215495,41.39701270803266L143.74293854045868,41.26012640241581L143.83521454016366,41.12998436530518L143.92749053986867,41.05189914303881L143.95055953979494,41.005048009679086L144.5503535378774,40.9289270759229L145.08094053618115,40.883254515669165L145.74994153404234,40.7598304720363L146.0037005332311,40.63772750642727L146.3728045320511,40.468445219581355L146.69577053101858,40.462896354954324L146.71883953094482,40.363546528697384L147.18021952946978,40.30393663294342L147.73387552769978,40.172150188010136L148.1029795265198,40.09307832105023L148.5412905251185,39.997586661445126L148.61049752489728,39.94029166568208L148.7258425245285,39.85790441448384L149.5793955217997,39.71245155628438L149.7408785212835,39.6251798413644L149.83315452098847,39.572816812412555L149.97156852054596,39.54139899504136L150.10998252010344,39.52254830461874L150.2253275197347,39.511237890365095L150.29453451951346,39.64848240303408L150.34067251936597,39.73082911063531L150.89432851759594,39.540185866494426L151.0788805170059,39.42579992000984L151.47105351575217,39.40517860585939L151.5863985153834,39.34479556362885L151.6325365152359,39.308565738290525L151.90936451435087,39.286827843087394L151.9555025142034,39.27378510596566L152.0939165137609,39.26595946369258L152.3707445128759,39.21321553889965L152.4860895125071,39.1815691840238L152.7167795117696,39.1625813710983L152.9474695110321,39.15118868334295L153.59340150896708,39.09634281694946L153.63953950881958,39.063435297113415L153.7318155085246,39.043690785211794L154.0778505074183,38.93582357059009L155.02367950439455,38.82309298807675L155.0928865041733,38.75545463856861L155.50812850284575,38.71487162886365L155.92337050151826,38.594463029871264L156.31554350026448,38.474207616735555L156.38475050004322,38.40205436885415L156.50009549967447,38.40677267386556L156.61544049930572,38.409603656872406L157.03068249797823,38.36329199293624L157.05375149790447,38.335504994574535L157.4459244966507,38.31883279555748L157.51513149642943,38.308829476147224L157.67661449591319,38.30282748450105L158.2994774939219,38.20320578203271L158.3456154937744,38.14343276055155L158.50709849325816,38.10756894766283L158.92234049193064,38.038002120500664L159.12996149126687,38.14033107111308L159.33758249060313,38.00964914083053L159.56827248986562,37.93123998266077L159.82203148905438,37.884194487759146L159.91430748875936,37.85596719081818L159.9373764886856,37.839030812653306L160.37568748728435,37.828868985754355L160.49103248691557,37.8227718896153L160.53717048676808,37.81911363193157L160.62944648647309,37.81691867732164L160.8370674858093,37.86361195829588L161.25230948448183,37.89162792688026L161.7136894830068,37.8604272542907L161.82903448263804,37.841706850737125L162.0366554819743,37.87848486234529L162.17506948153178,37.90055166931015L162.19813848145802,37.91379175348905L162.29041448116303,37.92173580399634L162.35962148094177,37.92650223430084L162.86713947931926,37.83334158500264L163.28238147799175,37.777445195423695L163.37465747769673,37.74390736167632L163.49000247732798,37.723784661427885L163.85910647614796,37.711711041278875L163.90524447600046,37.70446686918956L164.13593447526296,37.65211011219546L164.27434847482047,37.5726858042587L164.32048647467295,37.477020965756424L164.45890047423043,37.563652823876L164.50503847408294,37.6156319387477L164.55117647393544,37.55079890019013L164.82800447305044,37.55990933079585L164.87414247290295,37.61338584289959L164.92028047275542,37.64547175016193L165.45086747105915,37.61671304077896L165.6584884703954,37.59945781514921L165.72769547017415,37.58910467977137L166.09679946899413,37.53488254480439L166.35055846818287,37.50234926382413L166.39669646803537,37.48282929523597L166.5351104675929,37.47111731408316L166.83500746663412,37.41607987165099L166.95035246626534,37.38305740619168L167.11183546574912,37.41125418065653L167.25024946530658,37.42817224533539L167.55014646434782,37.43832308414281L168.14994046243032,37.444413587427135L168.68052746073403,37.40005763565753L168.77280346043906,37.27738527142617L168.7958724603653,37.443871407277896L168.95735545984903,37.44774258130818L169.34952845859527,37.45006528572631L169.60328745778403,37.40344865463675L169.85704645697277,37.37547867598309L170.0185294564565,37.35869668879096L170.156943456014,37.300578957046554L170.71059945424398,37.21769806425968L171.97939445018767,37.16796952858746L172.07167044989268,37.18614266092453L172.37156744893392,37.10102603284591L172.71760244782766,37.09796630973912L172.90215444723768,37.00010996839438L172.92522344716392,36.94139616358757L173.0174994468689,36.90616788070335L173.2481894461314,36.88503091097289L173.4788794453939,36.872348729134615L173.50194844532012,36.864739420031725L173.5250174452464,36.86017383456996L173.70956944465635,36.85743448329282L174.17094944318134,36.85579087252651L174.72460544141134,36.85480470606686L174.8860884408951,36.854213006191L174.95529544067384,36.853857986265496L175.18598543993633,36.85364497431024L175.3936064392726,36.853517167137085L175.46281343905133,36.85344048283315L175.69350343831383,36.85339447225081L175.80884843794504,36.85336686590145L176.63933243529002,36.75729150892221L176.84695343462627,36.65163604099436L176.89309143447878,36.540232506497404L176.98536743418376,36.42538013205868L177.12378143374127,36.50049946861671L177.19298843352001,36.40154030933036L177.35447143300377,36.486195574979575L177.53902343241373,36.39295797314793L177.60823043219247,36.33701541204894L177.79278243160246,36.3034498753897L177.88505843130747,36.2833105533941L177.97733443101248,36.27122696019666L178.5079214293162,36.26397680427834L178.6001974290212,36.25962671072725L178.76168042850495,36.257016654596555L178.85395642820995,36.25545062091825L179.1077154273987,36.20650074697099L179.3845434265137,36.12912056886225L179.75364742533367,36.082692461996885L180.33037242348988,36.05483559787774L180.67640742238362,36.03812147940624L180.99937342135112,35.932034215153806L181.1839254207611,35.8683818566023L181.3684774201711,35.68615968025037L181.5068914197286,35.768867389400754L181.52996041965486,35.722471507410035L182.12975441773733,35.69463397821582L182.4527204167048,35.677931460699085L183.02944541486104,35.66790995018903L183.42161841360726,35.56587653640241L183.69844641272226,35.45660794870136L183.76765341250103,35.391046796080644L183.90606741205852,35.351710104508214L184.321309410731,35.23208758208398L184.3674474105835,35.16031406862959L184.78268940925597,35.11724996055682L184.87496540896097,35.09141149571309L185.3594144074122,35.07590841680687L185.4516904071172,35.066606569463346L185.61317340660094,35.0610254610572L185.91307040564217,35.05767679601334L186.0514844051997,35.05566759698715L186.3744504041672,35.054462077571344L186.65127840328216,35.053738765921906L186.9973134021759,35.053304778932215L187.1818654015859,35.05304438673835L187.20493440151216,35.05288815142214L187.71245239988963,35.05279441023228L187.80472839959464,35.052738165518605L188.1276943985621,35.05270441869024L188.4045223976771,35.05268417059321L188.42759139760335,35.00466176799466L188.5890743970871,34.927838072695266L188.91204039605458,34.881743855515566L189.05045439561206,34.854087325207644L189.21193739509582,34.83749340702292L189.25807539494832,34.82753705611219L189.46569639428458,34.917583753046614L189.51183439413705,34.97161177120725L189.53490339406332,34.90800807462273L189.97321439266204,34.869845856671986L190.0424213924408,34.846948525901524L190.25004239177704,34.83321012743926L190.54993939081828,34.824967088362L191.10359538904825,34.82002126491565L191.47269938786823,34.81705377084779L191.726458387057,34.81527327440705L192.14170038572948,34.814204976542584L192.37239038499195,34.813563997823906L192.3954593849182,34.813179410592824L192.5338733844757,34.76493840451377L192.69535638395948,34.73599380086637L192.78763238366446,34.670578499248705L192.8107013835907,34.63132931827809L192.83377038351693,34.607779809695785L193.34128838189443,34.593650104546356L193.36435738182067,34.58517228145669L193.45663338152568,34.58008558760295L193.50277138137815,34.577033571290684L193.7103923807144,34.575202361503386L193.8026683804194,34.57410363563099L194.47166937828064,34.573444400107576L194.4947383782069,34.52503860505308L194.70235937754313,34.49599512802041L194.77156637732188,34.47856904180077L194.93304937680563,34.46811339006905L195.1637393760681,34.41382974528952L195.18680837599436,34.381259558421846L195.23294637584686,34.36171744630147L195.3482913754781,34.349992179029016L195.48670537503563,34.342957018665686L195.5789813747406,34.338735922447626L195.6251193745931,34.33620326471686L195.99422337341306,34.33468367007839L196.13263737297058,34.33377191329524L196.15570637289684,34.33322485922537L196.34025837230683,34.33289662678348L196.77856937090556,34.33269968731847L197.1707423696518,34.33258152363922L197.77053636773428,34.33251062543161L198.301123366038,34.332468086507305L198.60102036507925,34.33244256315274L198.670227364858,34.33242724913998L199.3853663625717,34.33241806073221L199.40843536249798,34.332412547687596L199.77753936131796,34.33240923986091L199.8006083612442,34.332407255164895L200.0312983605067,34.332406064347L200.10050536028544,34.33240534985629L200.14664336013794,34.33240492116204L200.40040235932668,34.33240466394551L200.5388163588842,34.33240450961566L200.60802335866293,34.28439416327711L200.70029935836791,34.25558795547417L201.11554135704043,34.23830423079244L201.13861035696667,34.22793399598331L201.23088635667165,34.22171185509768L201.3000933564504,34.2179785705664L201.34623135630292,34.16772834610725L201.6691973552704,34.13757821143187L201.76147335497538,34.11948813062668L202.0152323541641,34.06058554271428L202.08443935394286,34.02524398996681L202.54581935246787,34.004039058318455L202.73037135187784,33.99131609932945L202.96106135114033,33.98368232393608L202.98413035106657,33.97910205869988L203.23788935025533,33.97635389955818L203.76847634855906,33.97470500407323L203.8838213481903,33.973715666782255L204.27599434693656,33.973122064407676L205.29103034369152,33.92475564924251L205.31409934361776,33.89573580014343L205.40637534332276,33.87832389068407L205.49865134302775,33.86787674500843L205.91389334170023,33.86160845760304L206.05230734125772,33.857847485159795L207.04427433808644,33.85559090169377L207.22882633749646,33.85423695161427L207.41337833690642,33.85342458156663L207.43644733683269,33.8529371595379L207.82862033557893,33.804634452580416L208.12851733462017,33.8236630821462L208.22079333432515,33.73905975240484L208.47455233351388,33.73630800830051L208.75138033262888,33.734656961837885L208.82058733240763,33.73366633396046L208.86672533226013,33.733071957233875L208.95900133196514,33.73271533119802L209.1435533313751,33.732501355576574L210.52769332695007,33.68436271646311L210.66610732650756,33.65547953299506L210.68917632643382,33.638149622914256L211.08134932518004,33.6277516768659L211.2428323246638,33.62151290923674L211.77341932296753,33.56975939491889L211.8656953226725,33.538707286328105L212.11945432186127,33.52007602117371L212.18866132164,33.50889726208101L212.58083432038626,33.50219000662551L212.71924831994374,33.49816565335229L213.01914531898498,33.49575104138813L213.48052531750997,33.446292020469485L213.68814631684623,33.41661660791817L214.0572503156662,33.39881136038744L214.10338831551869,33.292069418699555L214.31100931485494,33.32408304685626L214.5186303141912,33.24723243058071L214.70318231360116,33.20112206081549L215.16456231212615,33.173455838956414L215.21070031197866,33.15685610584083L215.2799073117574,33.14689626597158L215.3260453116099,33.14092036204991L215.4644593111674,33.13733481969703L215.7412873102824,33.1351834942852L215.76435631020863,33.13389269903823L215.92583930969238,33.085107968149686L215.99504630947112,33.055837129616606L216.11039130910237,33.038274626496616L216.27187430858612,33.02773712462471L216.31801230843863,33.021414623501556L217.4945313046773,33.01762112282765L217.74829030386607,33.015345022423304L217.81749730364484,33.013979362180635L217.93284230327606,33.013159966035175L218.30194630209604,33.01266832834776L218.39422230180105,33.01237334573534L218.41729130172732,33.01219635616795L218.4634293015798,33.01209016242743L218.6941193008423,33.0120264461832L218.78639530054727,33.011988216436635L218.87867130025228,33.011965278588775L219.0862922995885,33.01195151587993L219.10936129951477,33.01194325825469L219.22470629914602,32.963928049939284L219.316982298851,32.93511892495005L219.34005129877727,32.917833449956305L219.68608629767098,32.90746216495995L220.40122529538473,32.901239393962186L220.67805329449973,32.89750573136362L220.83953629398346,32.89526553380446L220.9548812936147,32.89392141526909L221.2778472925822,32.8931149441477L221.48546829191844,32.89263106147504L221.83150329081218,32.79628193870198L222.0852622900009,32.73847246503817L222.24674528948464,32.79984557400931L222.2698142894109,32.78865918565157L222.47743528874713,32.829957606377405L223.3540572859446,32.758677865643364L223.42326428572338,32.71591002120283L223.46940228557588,32.69024931453839L223.53860928535462,32.67485289054002L223.56167828528086,32.665615036140764L223.65395428498584,32.66007232350114L224.39216228262583,32.70479523534681L224.7151282815933,32.779639236194356L225.33799127960202,32.824545636702936L225.47640527915954,32.85148947700819L225.56868127886455,32.867655781191246L225.98392327753703,32.87735556370109L226.09926827716828,32.88317543320713L226.445303276062,32.88666735491046L226.51451027584076,32.88876250793248L226.5837172756195,32.89001959974573L227.06816627407076,32.890773854833725L227.3219252732595,32.891226407886705L227.62182227230073,32.89149793971842L227.64489127222697,32.89166085881723L227.87558127148947,32.89175861027661L227.9447882712682,32.93982751489264L228.0370642709732,32.968668857662294L228.42923726971947,32.93796340958386L228.47537526957194,32.91954014073656L228.54458226935068,32.90848617942828L229.02903126780194,32.90185380264339L229.07516926765442,32.897874376572275L229.19051426728566,32.89548672092985L229.4442732664744,32.894054127544166L229.62882526588442,32.89319457151285L229.7211012655894,32.89267883789398L230.11327426433564,32.84435914398222L230.25168826389313,32.81536732763544L230.48237826315562,32.79797223782731L230.52851626300813,32.78753518394245L230.66693026256561,32.7812729516113L230.78227526219686,32.77751561221268L230.89762026182808,32.77526120857374L230.96682726160685,32.77390856639036L231.3128622605006,32.77309698108033L231.33593126042683,32.77261002989411L231.95879425843557,32.724269319753205L232.14334625784556,32.69526489366862L232.37403625710806,32.67786223801809L232.6277952562968,32.667420644627555L233.11224425474802,32.661155688593425L233.50441725349427,32.65739671497303L233.5274862534205,32.655141330800774L234.26569425106047,32.653788100297305L234.28876325098676,32.652976161995355L234.42717725054422,32.65248899901411L235.62676524670917,32.652196701225364L235.6729032465617,32.652021322552116L235.83438624604543,32.651916095348184L235.90359324582417,32.651852959025746L236.06507624530792,32.65181507723236L236.68793924331663,32.65179234815639L237.1723882417679,32.60376845697019L237.40307824103039,32.574954122258475L237.77218223985037,32.55766552143149L237.81832023970284,32.547292360935415L237.86445823955535,32.541068464637675L237.97980323918662,32.53733412685898L238.71801123682656,32.487083270451535L238.83335623645783,32.45693275660696L239.08711523564656,32.438842448300306L239.11018423557283,32.42798826331625L239.13325323549907,32.42147575232593L239.2024602352778,32.41756824573167L239.5715642340978,32.36721348803485L240.19442723210653,32.33700063341661L240.26363423188528,32.318872920645845L240.72501423041027,32.30799629298332L240.86342822996775,32.34948057012619L240.886497229894,32.27835062893092L241.48629122797647,32.283682917954394L241.64777422746022,32.33489254510883L241.809257226944,32.36561832140137L242.5705342245102,32.38405378717698L242.6397412242889,32.39511506664226L243.07805222288766,32.401751834321544L243.10112122281393,32.405733894929114L243.30874222215016,32.40812313129351L243.4702252216339,32.40955667311215L243.53943222141268,32.41041679820347L243.7009152208964,32.31491236577759L243.77012222067518,32.25760970632189L244.20843321927387,32.22322811064839L244.2776402190526,32.20259915324456L244.53139921824138,32.19022177880208L244.7851582174301,32.1827953541368L245.0158482166926,32.22634975307781L245.0619862165451,32.204472138702016L245.08505521647135,32.287366077557294L245.1542622162501,32.24108193338981L245.70791821448006,32.165262907460146L245.82326321411134,32.11977149190233L245.84633221403757,32.09247664256759L245.93860821374255,32.028089479226594L246.3769192123413,31.989457181222008L246.39998821226757,31.966277802419086L246.6076092116038,31.952370175137332L246.7921612110138,31.944025598768178L247.06898921012876,31.939018852946873L247.9225422074,31.936014805454022L247.99174920717877,31.934212376958158L248.19937020651497,31.933130919860844L248.22243920644124,31.932482045602484L248.36085320599875,31.88408246730694L248.40699120585123,31.855042720329607L248.61461220518748,31.83761887214328L249.42202720260622,31.82716456323152L249.53737220223744,31.8208919778844L250.06795920054117,31.817128426676135L250.1371662003199,31.814870295951096L250.20637320009868,31.813515417516157L250.4139941994349,31.812702490455194L251.0599261973699,31.812214734218657L251.6135821955999,31.811922080476734L251.84427219486236,31.811746488231535L253.11306719080608,31.85965138662479L253.2514811903636,31.888394325660897L253.34375719006857,31.905640089082368L253.41296418984732,31.91598754713516L253.66672318903605,31.922196021967153L253.7359301888148,31.92592110686624" fill="none"></path></g></g></g></g><g opacity="0.2"><g><g><g><path style="fill: none;" stroke="rgb(255, 112, 67)" stroke-width="2px" d="M33.33470489343008,180.30491992030878L33.680739892323814,176.58364668432117L33.749946892102564,175.50322454671917L33.77301589202881,175.26317327801738L34.003705891291304,173.10232900281338L34.442016889890034,170.3413565558549L34.92646588834127,166.37993633694353L35.3186388870875,163.49893825563416L35.43398388671875,162.8987143696577L36.05684688472748,157.85687201314434L36.28753688398997,155.8161490865132L36.425950883547465,154.25562441150763L36.5874338830312,152.3349271192274L36.61050288295746,152.3349271192274L37.37177988052368,148.01333428304136L37.41791788037618,147.89330864869046L37.694745879491165,146.57283524238667L37.85622887897492,145.25236183608288L37.87929787890116,145.132336201732L37.92543587875367,144.77216358445733L37.99464287853241,144.53211231575554L38.04078087838491,144.05191406413L38.31760887749989,142.13121677184972L38.548298876762395,140.4505707482713L39.54026587359111,134.08835069967608L39.72481787300109,133.84820371675235L39.90936987241109,133.24797983077588L40.11699087174733,132.64775594479943L40.41688787078857,131.08723126979385L40.50916387049357,130.60703301816832L40.716784869829816,129.5267065947883L40.80906086953481,129.40658524621543L40.85519886938731,129.16653397751364L40.901336869239806,129.28655961186453L41.06281986872356,128.44628445718627L41.1781648683548,127.48598366815715L41.224302868207296,127.36586231958428L41.33964786783854,126.8857597821807L41.38578586769104,126.52558716490604L41.47806186739604,126.16551026185336L41.57033786710103,125.56528637587691L41.70875186665853,125.20511375860225L41.731820866584776,125.08508812425136L42.26240786488851,122.56416694599469L42.354683864593504,122.44414131164379L43.11596086215973,119.32299624741064L43.27744386164347,118.7227723614342L43.41585786120097,118.12254847545775L43.73882386016846,116.32187681752842L43.831099859873454,115.84177428012484L43.9925828593572,115.60162729720108L44.0387208592097,115.24155039414839L44.223272858619694,114.76135214252281L44.546238857587184,113.32085310186814L44.56930785751343,113.20082746751724L44.79999785677592,112.72062921589169L44.86920485655467,112.4805779471899L45.07682585589091,112.00037969556435L45.26137785530091,111.4001558095879L45.46899885463715,111.5201814439388L45.492067854563395,111.280130175237L45.63048185412089,110.55988065490966L45.65355085404714,110.55988065490966L45.76889585367839,109.71950978600945L46.18413785235087,108.03895947665298L46.253344852129615,107.91893384230208L46.460965851465865,107.67878685937832L47.153035849253335,105.63806393274719L47.45293284829457,104.67776314371805L47.59134684785207,103.83739227481784L47.660553847630815,104.1975648920925L47.70669184748332,104.1975648920925L47.798967847188315,104.1975648920925L47.93738184674581,103.59734100611605L48.052726846377055,103.47731537176516L48.28341684563954,103.2371683888414L48.42183084519704,102.63704021708692L48.53717584482829,102.39689323416316L48.76786584409078,101.79666934818671L49.73676384099325,99.63592078720468L49.82903984069824,99.63592078720468L49.852108840624496,99.63592078720468L49.87517784055074,99.63592078720468L50.290419839223226,99.15572253557913L50.590316838264464,98.79564563252644L50.8902138373057,97.71522349492444L51.490007835388184,96.8749483402462L51.766835834503176,96.63480135732244L52.020594833691916,96.63480135732244L52.089801833470666,96.51477572297155L52.159008833249416,96.034577471346L52.62038883177439,95.19430231666776L52.758802831331884,94.7141040650422L52.92028583081564,94.23400152763863L53.05869983037313,94.23400152763863L53.42780382919312,93.39363065873842L53.49701082897187,93.27360502438752L53.7507698281606,92.07315725243463L53.81997682793935,91.83310598373284L53.88918382771809,91.71308034938194L53.91225282764435,91.59305471503104L55.019564824104314,89.9124086914526L55.08877182388306,89.7923830571017L55.15797882366181,89.7923830571017L55.18104782358805,89.7923830571017L55.68856582196553,89.31218480547615L55.965393821080525,89.07213353677436L56.19608382034302,88.4719096507979L56.288359820048015,88.11173703352326L56.865084818204245,87.03141061014323L56.88815381813049,87.03141061014323L57.14191281731923,86.91128926157036L57.32646481672923,86.43118672416678L57.41874081643422,86.07101410689212L57.46487881628673,85.95098847254123L58.203086813926696,84.03029118026099L58.2953628136317,84.03029118026099L58.87208781178792,82.94986904265899L59.24119181060791,82.34964515668253L59.264260810534154,82.22961952233163L59.610295809427896,81.6293956363552L59.7025718091329,81.26931873330251L60.07167580795288,81.02917175037875L60.094744807879124,81.02917175037875L60.60226280625661,79.82881969264783L60.71760780588786,79.82881969264783L60.832952805519106,79.70869834407496L60.90215980529785,79.58867270972407L61.017504804929104,79.46864707537317L61.086711804707846,79.22859580667138L61.36353980382284,78.50834628634402L61.54809180323283,78.26819930342027L61.709574802716574,78.26819930342027L61.87105780220032,78.02814803471848L62.07867880153656,77.90812240036759L62.17095480124156,77.78800105179471L62.217092801094054,77.54794978309292L62.26323080094655,77.42792414874202L62.332437800725295,77.18787288004023L62.49392080020905,76.94772589711648L62.70154179954529,76.7076746284147L62.93223179880778,76.46752764549092L63.02450779851277,76.5876489940638L63.07064579836528,76.34750201114002L63.13985279814402,76.34750201114002L63.255197797775274,75.86739947373644L63.32440479755402,75.6272524908127L63.34747379748026,75.3872012221109L63.80885379600525,75.14705423918713L64.0164747953415,74.78697733613444L64.154888794899,74.4268047188598L64.31637179438273,74.06672781580711L64.33944079430898,73.94670218145622L64.54706179364523,73.82658083288335L64.70854479312897,73.82658083288335L65.1929937915802,73.58652956418156L65.2852697912852,73.46650392983067L65.51595979054768,72.74625440950332L65.60823579025268,72.74625440950332L65.81585678958892,72.14603052352687L66.11575378863017,71.66583227190131L66.18496078840892,71.42578100319952L66.32337478796642,71.30575536884862L66.3695127878189,71.18563402027577L67.15385878531139,69.98528196254483L67.29227278486889,69.86516061397198L67.68444578361512,69.26493672799552L67.9151357828776,68.90485982494283L67.98434278265634,68.90485982494283L68.03048078250885,68.90485982494283L68.44572278118133,68.54468720766819L68.76868878014882,68.06458467026461L68.81482678000133,68.06458467026461L69.23006877867381,67.58438641863904L69.3223447783788,67.70441205298994L69.5068967777888,67.82443768734083L69.89906977653503,67.70441205298994L70.03748377609253,67.70441205298994L70.59113977432251,67.2242138013644L70.89103677336375,67.1041881670135L70.96024377314251,67.2242138013644L70.98331277306875,67.2242138013644L71.02945077292124,66.98416253266261L71.07558877277374,66.86413689831171L71.16786477247874,66.98416253266261L71.26014077218375,66.74411126396082L71.42162377166748,66.74411126396082L71.76765877056121,66.74411126396082L72.55200476805369,66.14388737798437L72.64428076775869,65.7837147607097L72.80576376724244,65.42363785765701L73.01338476657867,65.18349087473327L73.29021276569367,65.06346524038237L73.52090276495616,64.94343960603148L73.56704076480865,64.82341397168058L73.61317876466116,64.7032926231077L73.72852376429239,64.7032926231077L73.79773076407115,64.7032926231077L73.98228276348114,64.7032926231077L74.07455876318613,64.82341397168058L74.53593876171112,64.7032926231077L74.65128376134237,64.46324135440591L74.67435276126861,64.46324135440591L74.72049076112113,63.98304310278037L74.78969776089986,63.863017468429476L74.88197376060486,63.74299183407858L74.90504276053112,63.74299183407858L75.06652576001485,63.38281921680391L75.1357327597936,63.38281921680391L75.25107775942485,63.38281921680391L75.68938875802357,62.78269104504943L75.92007875728606,62.66256969647658L76.05849275684356,62.542544062125685L76.19690675640106,62.42251842777479L76.28918275610606,62.42251842777479L76.56601075522106,62.06234581050012L76.5890797551473,62.06234581050012L77.16580475330353,61.82229454179833L77.37342575263978,61.70226890744743L78.1808407500585,61.34209629017279L78.20390974998473,61.34209629017279L78.25004774983724,61.34209629017279L79.2650837465922,60.38179550114364L79.44963574600219,60.021622883869L79.61111874548595,60.021622883869L79.65725674533844,59.901597249518105L79.70339474519093,59.901597249518105L79.81873974482218,60.021622883869L80.3954647429784,59.54152034646542L80.41853374290466,59.42139899789255L80.64922374216715,59.54152034646542L80.69536174201964,59.42139899789255L80.81070674165089,59.18134772919076L81.13367274061838,59.18134772919076L81.27208674017588,59.061322094839866L81.47970773951212,58.82117511191609L81.82574273840585,58.461098208863405L81.91801873811086,58.461098208863405L81.96415673796335,58.461098208863405L82.5408817361196,57.380676071261405L82.81770973523459,57.02059916820872L83.04839973449707,56.18022829930851L83.18681373405457,56.18022829930851L83.5789867328008,55.94017703060672L83.7174007323583,55.94017703060672L83.74046973228454,55.94017703060672L84.06343573125203,55.820151396255824L84.20184973080953,55.70012576190493L84.31719473044078,55.45997877898118L84.84778172874451,54.85975489300472L85.00926472822825,54.49967798995203L85.1246097278595,54.259531007028286L85.42450672690073,54.259531007028286L85.58598972638447,54.259531007028286L85.93202472527823,53.8994541039756L86.20885272439321,53.65940283527381L86.27805972417195,53.65940283527381L86.60102572313944,53.53928148670093L87.40844072055816,53.29923021799914L87.43150972048443,53.29923021799914L87.45457872041067,53.29923021799914L87.86982071908315,53.419255852350034L88.21585571797688,52.8190319663736L89.32316771443685,52.21880808039715L89.53078871377309,52.33892942897002L89.73840971310933,52.33892942897002L89.87682371266683,52.21880808039715L90.36127271111806,52.09878244604626L90.40741071097057,51.97875681169536L90.4304797108968,51.97875681169536L91.51472270743052,51.13848165701711L91.69927470684051,50.77830903974247L92.22986170514424,50.77830903974247L92.43748270448049,50.65828340539157L92.52975870418548,50.65828340539157L92.62203470389049,50.77830903974247L92.89886270300548,50.89833467409336L92.96806970278422,50.89833467409336L93.15262170219422,50.77830903974247L93.22182870197295,50.65828340539157L93.77548470020294,49.69788690214047L93.86776069990795,49.57786126778957L93.91389869976044,49.57786126778957L94.55983069769542,49.57786126778957L95.09041769599915,48.857611747462215L95.43645269489288,48.73758611311132L95.62100469430287,48.617560478760424L95.73634969393412,48.37741349583666L95.85169469356536,48.37741349583666L95.99010869312286,48.49753484440953L96.35921269194286,48.25738786148577L96.77445469061534,47.89731095843308L96.7975236905416,47.777285324082186L96.95900669002533,47.65716397550932L97.02821368980408,47.65716397550932L97.58186968803405,47.65716397550932L97.6510766878128,47.41711270680753L97.81255968729656,47.41711270680753L97.8817666870753,47.297087072456634L97.90483568700155,47.297087072456634L97.95097368685404,47.41711270680753L97.9740426867803,47.41711270680753L98.55076768493652,47.297087072456634L98.75838868427277,47.537138341158425L99.31204468250274,46.936914455182006L99.49659668191273,46.936914455182006L99.81956268088022,46.696863186480215L99.84263168080649,46.696863186480215L100.23480467955271,46.696863186480215L100.90380567741394,46.936914455182006L100.94994367726643,46.81688882083111L101.18063367652893,46.81688882083111L101.57280667527517,46.696863186480215L101.68815167490642,46.57683755212932L102.19566967328389,46.33669056920553L102.38022167269389,46.456811917778424L102.63398067188264,46.33669056920553L102.68011867173513,46.33669056920553L102.84160167121887,46.216664934854634L102.98001567077637,46.09663930050374L103.1414986702601,45.97661366615284L103.2799126698176,46.09663930050374L103.34911966959636,45.97661366615284L103.7412926683426,45.85658803180195L104.01812066745757,45.97661366615284L104.08732766723632,45.97661366615284L104.24881066672008,45.85658803180195L104.61791466554006,45.61644104887819L104.66405266539256,45.49641541452729L104.80246666495005,45.49641541452729L104.89474266465506,45.49641541452729L105.26384666347504,45.136338511474605L105.65601966222127,45.01621716290174L106.11739966074626,44.896191528550844L106.53264165941874,44.896191528550844L106.57877965927125,44.896191528550844L106.62491765912374,44.896191528550844L106.6941246589025,44.896191528550844L106.76333165868122,44.77616589419995L107.15550465742747,44.77616589419995L107.40926365661622,44.53611462549816L107.7322296555837,44.65614025984905L108.42429965337118,44.2959676425744L108.47043765322367,44.2959676425744L109.02409365145365,44.2959676425744L109.11636965115865,44.1759420082235L109.16250765101114,44.055916373872606L109.30092165056864,43.93589073952171L109.3701286503474,43.69574375659795L109.41626665019989,43.57571812224705L109.62388764953614,43.45569248789616L109.78537064901988,43.45569248789616L110.08526764806112,43.57571812224705L110.26981964747111,43.57571812224705L110.56971664651235,43.69574375659795L110.61585464636485,43.69574375659795L110.6850616461436,43.69574375659795L111.05416564496359,43.815769390948844L111.16951064459484,43.815769390948844L111.21564864444733,43.815769390948844L111.44633864370982,43.69574375659795L111.5386146434148,43.69574375659795L112.20761564127604,43.93589073952171L112.32296064090728,43.93589073952171L112.48444364039104,43.93589073952171L113.499479637146,43.93589073952171L113.684031636556,44.1759420082235L113.84551463603974,44.1759420082235L113.93779063574473,44.1759420082235L114.19154963493347,44.1759420082235L114.32996363449097,44.055916373872606L114.46837763404845,44.055916373872606L114.97589563242595,44.1759420082235L115.2296546316147,44.2959676425744L115.34499963124594,44.2959676425744L115.55262063058217,44.1759420082235L115.57568963050842,44.41599327692529L115.8525176296234,44.1759420082235L116.10627662881215,44.1759420082235L116.17548362859091,44.055916373872606L116.40617362785339,44.055916373872606L117.49041662438711,44.055916373872606L117.60576162401836,44.055916373872606L117.6288306239446,44.055916373872606L117.8595206232071,44.055916373872606L119.54355761782328,43.33566685354526L119.79731661701203,43.0955198706215L119.82038561693828,43.21564121919437L119.86652361679077,43.21564121919437L119.91266161664326,43.21564121919437L119.98186861642202,43.21564121919437L120.00493761634827,43.21564121919437L120.5816626145045,43.45569248789616L120.69700761413574,43.57571812224705L120.7662146139145,43.69574375659795L120.95076661332449,43.69574375659795L121.20452561251322,43.45569248789616L121.41214661184947,42.975494236270606L121.48135361162822,43.0955198706215L121.50442261155446,43.0955198706215L121.8504576104482,43.0955198706215L122.21956160926818,43.0955198706215L122.35797560882568,43.21564121919437L122.45025160853069,43.21564121919437L122.65787260786692,43.21564121919437L122.70401060771941,43.21564121919437L122.91163160705567,43.21564121919437L123.00390760676066,43.0955198706215L123.2576666059494,42.85546860191971L123.85746060403189,42.85546860191971L124.06508160336811,42.85546860191971L124.41111660226187,42.735442967568815L124.57259960174561,42.735442967568815L124.71101360130311,42.735442967568815L124.80328960100809,42.735442967568815L124.82635860093436,42.735442967568815L125.26466959953308,42.735442967568815L125.33387659931182,42.735442967568815L126.16436059665679,42.495295984645054L126.30277459621429,42.495295984645054L126.64880959510803,42.735442967568815L126.69494759496052,42.735442967568815L127.08712059370677,42.25524471594326L127.11018959363301,42.25524471594326L127.54850059223175,42.37527035029416L127.571569592158,42.25524471594326L127.64077659193676,42.25524471594326L127.84839759127298,42.13521908159237L128.10215659046173,42.13521908159237L128.67888158861797,42.495295984645054L128.7480885883967,42.495295984645054L129.00184758758544,42.495295984645054L129.0710545873642,42.495295984645054L129.1171925872167,42.495295984645054L129.1633305870692,42.495295984645054L129.4401585861842,42.37527035029416L129.83233158493042,42.25524471594326L130.31678058338164,42.01519344724147L130.4782635828654,42.37527035029416L130.66281558227539,42.13521908159237L130.7550915819804,42.25524471594326L130.91657458146412,42.13521908159237L130.93964358139038,42.01519344724147L130.96271258131662,42.13521908159237L131.19340258057912,42.01519344724147L131.79319657866162,42.01519344724147L131.90854157829284,42.01519344724147L132.27764557711282,41.89516781289058L132.53140457630158,42.01519344724147L132.6236805760066,42.01519344724147L132.64674957593283,42.01519344724147L132.83130157534282,42.01519344724147L132.9697155749003,42.01519344724147L133.03892257467905,42.01519344724147L133.2465435740153,42.01519344724147L133.33881957372031,42.01519344724147L133.50030257320404,42.01519344724147L133.52337157313028,42.01519344724147L133.6617855726878,42.01519344724147L133.80019957224528,42.01519344724147L133.84633757209778,42.01519344724147L133.91554457187652,41.414969561265025L134.72295956929526,41.655020829966816L134.99978756841026,41.53499519561592L135.43809856700898,41.53499519561592L135.48423656686148,41.53499519561592L135.96868556531268,41.414969561265025L136.4300655638377,41.53499519561592L136.98372156206767,41.414969561265025L137.05292856184641,41.414969561265025L137.35282556088765,41.414969561265025L137.53737756029764,41.53499519561592L137.7449985596339,41.29494392691413L137.81420555941264,41.53499519561592L137.86034355926515,41.29494392691413L137.88341255919138,41.655020829966816L138.89844855594635,41.655020829966816L139.03686255550383,41.53499519561592L139.10606955528257,41.414969561265025L139.26755255476633,41.29494392691413L139.56744955380756,41.414969561265025L139.61358755366007,41.414969561265025L139.6366565535863,41.414969561265025L139.79813955307006,41.174822578341264L140.21338155174254,41.05479694399037L140.74396855004628,41.29494392691413L140.85931354967755,41.174822578341264L141.3206935482025,41.174822578341264L141.36683154805502,41.174822578341264L141.5052455476125,41.174822578341264L142.10503954569498,41.414969561265025L142.22038454532625,41.414969561265025L142.61255754407247,41.414969561265025L143.02779954274496,41.414969561265025L143.21235154215495,41.414969561265025L143.74293854045868,41.05479694399037L143.83521454016366,40.93477130963947L143.92749053986867,40.93477130963947L143.95055953979494,40.93477130963947L144.5503535378774,40.81474567528858L145.08094053618115,40.81474567528858L145.74994153404234,40.57469440658679L146.0037005332311,40.45457305801392L146.3728045320511,40.21452178931213L146.69577053101858,40.45457305801392L146.71883953094482,40.21452178931213L147.18021952946978,40.21452178931213L147.73387552769978,39.97447052061034L148.1029795265198,39.97447052061034L148.5412905251185,39.8543491720375L148.61049752489728,39.8543491720375L148.7258425245285,39.734323537686606L149.5793955217997,39.494272268984815L149.7408785212835,39.494272268984815L149.83315452098847,39.494272268984815L149.97156852054596,39.494272268984815L150.10998252010344,39.494272268984815L150.2253275197347,39.494272268984815L150.29453451951346,39.8543491720375L150.34067251936597,39.8543491720375L150.89432851759594,39.254221000283025L151.0788805170059,39.254221000283025L151.47105351575217,39.37424663463392L151.5863985153834,39.254221000283025L151.6325365152359,39.254221000283025L151.90936451435087,39.254221000283025L151.9555025142034,39.254221000283025L152.0939165137609,39.254221000283025L152.3707445128759,39.13409965171013L152.4860895125071,39.13409965171013L152.7167795117696,39.13409965171013L152.9474695110321,39.13409965171013L153.59340150896708,39.014074017359235L153.63953950881958,39.014074017359235L153.7318155085246,39.014074017359235L154.0778505074183,38.774022748657444L155.02367950439455,38.65399711430655L155.0928865041733,38.65399711430655L155.50812850284575,38.65399711430655L155.92337050151826,38.41385013138279L156.31554350026448,38.29382449703189L156.38475050004322,38.29382449703189L156.50009549967447,38.41385013138279L156.61544049930572,38.41385013138279L157.03068249797823,38.29382449703189L157.05375149790447,38.29382449703189L157.4459244966507,38.29382449703189L157.51513149642943,38.29382449703189L157.67661449591319,38.29382449703189L158.2994774939219,38.0537732283301L158.3456154937744,38.0537732283301L158.50709849325816,38.0537732283301L158.92234049193064,37.933651879757235L159.12996149126687,38.29382449703189L159.33758249060313,37.81362624540634L159.56827248986562,37.81362624540634L159.82203148905438,37.81362624540634L159.91430748875936,37.81362624540634L159.9373764886856,37.81362624540634L160.37568748728435,37.81362624540634L160.49103248691557,37.81362624540634L160.53717048676808,37.81362624540634L160.62944648647309,37.81362624540634L160.8370674858093,37.933651879757235L161.25230948448183,37.933651879757235L161.7136894830068,37.81362624540634L161.82903448263804,37.81362624540634L162.0366554819743,37.933651879757235L162.17506948153178,37.933651879757235L162.19813848145802,37.933651879757235L162.29041448116303,37.933651879757235L162.35962148094177,37.933651879757235L162.86713947931926,37.693600611055444L163.28238147799175,37.693600611055444L163.37465747769673,37.693600611055444L163.49000247732798,37.693600611055444L163.85910647614796,37.693600611055444L163.90524447600046,37.693600611055444L164.13593447526296,37.57357497670455L164.27434847482047,37.453549342353654L164.32048647467295,37.33352370800276L164.45890047423043,37.693600611055444L164.50503847408294,37.693600611055444L164.55117647393544,37.453549342353654L164.82800447305044,37.57357497670455L164.87414247290295,37.693600611055444L164.92028047275542,37.693600611055444L165.45086747105915,37.57357497670455L165.6584884703954,37.57357497670455L165.72769547017415,37.57357497670455L166.09679946899413,37.453549342353654L166.35055846818287,37.453549342353654L166.39669646803537,37.453549342353654L166.5351104675929,37.453549342353654L166.83500746663412,37.33352370800276L166.95035246626534,37.33352370800276L167.11183546574912,37.453549342353654L167.25024946530658,37.453549342353654L167.55014646434782,37.453549342353654L168.14994046243032,37.453549342353654L168.68052746073403,37.33352370800276L168.77280346043906,37.093376725079L168.7958724603653,37.693600611055444L168.95735545984903,37.453549342353654L169.34952845859527,37.453549342353654L169.60328745778403,37.33352370800276L169.85704645697277,37.33352370800276L170.0185294564565,37.33352370800276L170.156943456014,37.21340235942989L170.71059945424398,37.093376725079L171.97939445018767,37.093376725079L172.07167044989268,37.21340235942989L172.37156744893392,36.9733510907281L172.71760244782766,37.093376725079L172.90215444723768,36.853325456377206L172.92522344716392,36.853325456377206L173.0174994468689,36.853325456377206L173.2481894461314,36.853325456377206L173.4788794453939,36.853325456377206L173.50194844532012,36.853325456377206L173.5250174452464,36.853325456377206L173.70956944465635,36.853325456377206L174.17094944318134,36.853325456377206L174.72460544141134,36.853325456377206L174.8860884408951,36.853325456377206L174.95529544067384,36.853325456377206L175.18598543993633,36.853325456377206L175.3936064392726,36.853325456377206L175.46281343905133,36.853325456377206L175.69350343831383,36.853325456377206L175.80884843794504,36.853325456377206L176.63933243529002,36.613178473453445L176.84695343462627,36.49315283910255L176.89309143447878,36.373127204751654L176.98536743418376,36.25310157040076L177.12378143374127,36.613178473453445L177.19298843352001,36.25310157040076L177.35447143300377,36.613178473453445L177.53902343241373,36.25310157040076L177.60823043219247,36.25310157040076L177.79278243160246,36.25310157040076L177.88505843130747,36.25310157040076L177.97733443101248,36.25310157040076L178.5079214293162,36.25310157040076L178.6001974290212,36.25310157040076L178.76168042850495,36.25310157040076L178.85395642820995,36.25310157040076L179.1077154273987,36.13307593604986L179.3845434265137,36.01305030169897L179.75364742533367,36.01305030169897L180.33037242348988,36.01305030169897L180.67640742238362,36.01305030169897L180.99937342135112,35.77290331877521L181.1839254207611,35.77290331877521L181.3684774201711,35.41282641572252L181.5068914197286,35.8929289531261L181.52996041965486,35.65287768442431L182.12975441773733,35.65287768442431L182.4527204167048,35.65287768442431L183.02944541486104,35.65287768442431L183.42161841360726,35.41282641572252L183.69844641272226,35.292705067149654L183.76765341250103,35.292705067149654L183.90606741205852,35.292705067149654L184.321309410731,35.052653798447864L184.3674474105835,35.052653798447864L184.78268940925597,35.052653798447864L184.87496540896097,35.052653798447864L185.3594144074122,35.052653798447864L185.4516904071172,35.052653798447864L185.61317340660094,35.052653798447864L185.91307040564217,35.052653798447864L186.0514844051997,35.052653798447864L186.3744504041672,35.052653798447864L186.65127840328216,35.052653798447864L186.9973134021759,35.052653798447864L187.1818654015859,35.052653798447864L187.20493440151216,35.052653798447864L187.71245239988963,35.052653798447864L187.80472839959464,35.052653798447864L188.1276943985621,35.052653798447864L188.4045223976771,35.052653798447864L188.42759139760335,34.93262816409697L188.5890743970871,34.81260252974607L188.91204039605458,34.81260252974607L189.05045439561206,34.81260252974607L189.21193739509582,34.81260252974607L189.25807539494832,34.81260252974607L189.46569639428458,35.052653798447864L189.51183439413705,35.052653798447864L189.53490339406332,34.81260252974607L189.97321439266204,34.81260252974607L190.0424213924408,34.81260252974607L190.25004239177704,34.81260252974607L190.54993939081828,34.81260252974607L191.10359538904825,34.81260252974607L191.47269938786823,34.81260252974607L191.726458387057,34.81260252974607L192.14170038572948,34.81260252974607L192.37239038499195,34.81260252974607L192.3954593849182,34.81260252974607L192.5338733844757,34.69257689539518L192.69535638395948,34.69257689539518L192.78763238366446,34.57245554682231L192.8107013835907,34.57245554682231L192.83377038351693,34.57245554682231L193.34128838189443,34.57245554682231L193.36435738182067,34.57245554682231L193.45663338152568,34.57245554682231L193.50277138137815,34.57245554682231L193.7103923807144,34.57245554682231L193.8026683804194,34.57245554682231L194.47166937828064,34.57245554682231L194.4947383782069,34.452429912471416L194.70235937754313,34.452429912471416L194.77156637732188,34.452429912471416L194.93304937680563,34.452429912471416L195.1637393760681,34.33240427812052L195.18680837599436,34.33240427812052L195.23294637584686,34.33240427812052L195.3482913754781,34.33240427812052L195.48670537503563,34.33240427812052L195.5789813747406,34.33240427812052L195.6251193745931,34.33240427812052L195.99422337341306,34.33240427812052L196.13263737297058,34.33240427812052L196.15570637289684,34.33240427812052L196.34025837230683,34.33240427812052L196.77856937090556,34.33240427812052L197.1707423696518,34.33240427812052L197.77053636773428,34.33240427812052L198.301123366038,34.33240427812052L198.60102036507925,34.33240427812052L198.670227364858,34.33240427812052L199.3853663625717,34.33240427812052L199.40843536249798,34.33240427812052L199.77753936131796,34.33240427812052L199.8006083612442,34.33240427812052L200.0312983605067,34.33240427812052L200.10050536028544,34.33240427812052L200.14664336013794,34.33240427812052L200.40040235932668,34.33240427812052L200.5388163588842,34.33240427812052L200.60802335866293,34.212378643769625L200.70029935836791,34.212378643769625L201.11554135704043,34.212378643769625L201.13861035696667,34.212378643769625L201.23088635667165,34.212378643769625L201.3000933564504,34.212378643769625L201.34623135630292,34.09235300941873L201.6691973552704,34.09235300941873L201.76147335497538,34.09235300941873L202.0152323541641,33.972231660845864L202.08443935394286,33.972231660845864L202.54581935246787,33.972231660845864L202.73037135187784,33.972231660845864L202.96106135114033,33.972231660845864L202.98413035106657,33.972231660845864L203.23788935025533,33.972231660845864L203.76847634855906,33.972231660845864L203.8838213481903,33.972231660845864L204.27599434693656,33.972231660845864L205.29103034369152,33.85220602649497L205.31409934361776,33.85220602649497L205.40637534332276,33.85220602649497L205.49865134302775,33.85220602649497L205.91389334170023,33.85220602649497L206.05230734125772,33.85220602649497L207.04427433808644,33.85220602649497L207.22882633749646,33.85220602649497L207.41337833690642,33.85220602649497L207.43644733683269,33.85220602649497L207.82862033557893,33.73218039214407L208.12851733462017,33.85220602649497L208.22079333432515,33.61215475779318L208.47455233351388,33.73218039214407L208.75138033262888,33.73218039214407L208.82058733240763,33.73218039214407L208.86672533226013,33.73218039214407L208.95900133196514,33.73218039214407L209.1435533313751,33.73218039214407L210.52769332695007,33.61215475779318L210.66610732650756,33.61215475779318L210.68917632643382,33.61215475779318L211.08134932518004,33.61215475779318L211.2428323246638,33.61215475779318L211.77341932296753,33.49212912344228L211.8656953226725,33.49212912344228L212.11945432186127,33.49212912344228L212.18866132164,33.49212912344228L212.58083432038626,33.49212912344228L212.71924831994374,33.49212912344228L213.01914531898498,33.49212912344228L213.48052531750997,33.37210348909139L213.68814631684623,33.37210348909139L214.0572503156662,33.37210348909139L214.10338831551869,33.131956506167626L214.31100931485494,33.37210348909139L214.5186303141912,33.131956506167626L214.70318231360116,33.131956506167626L215.16456231212615,33.131956506167626L215.21070031197866,33.131956506167626L215.2799073117574,33.131956506167626L215.3260453116099,33.131956506167626L215.4644593111674,33.131956506167626L215.7412873102824,33.131956506167626L215.76435631020863,33.131956506167626L215.92583930969238,33.01193087181673L215.99504630947112,33.01193087181673L216.11039130910237,33.01193087181673L216.27187430858612,33.01193087181673L216.31801230843863,33.01193087181673L217.4945313046773,33.01193087181673L217.74829030386607,33.01193087181673L217.81749730364484,33.01193087181673L217.93284230327606,33.01193087181673L218.30194630209604,33.01193087181673L218.39422230180105,33.01193087181673L218.41729130172732,33.01193087181673L218.4634293015798,33.01193087181673L218.6941193008423,33.01193087181673L218.78639530054727,33.01193087181673L218.87867130025228,33.01193087181673L219.0862922995885,33.01193087181673L219.10936129951477,33.01193087181673L219.22470629914602,32.891905237465835L219.316982298851,32.891905237465835L219.34005129877727,32.891905237465835L219.68608629767098,32.891905237465835L220.40122529538473,32.891905237465835L220.67805329449973,32.891905237465835L220.83953629398346,32.891905237465835L220.9548812936147,32.891905237465835L221.2778472925822,32.891905237465835L221.48546829191844,32.891905237465835L221.83150329081218,32.651758254542074L222.0852622900009,32.651758254542074L222.24674528948464,32.891905237465835L222.2698142894109,32.77187960311494L222.47743528874713,32.891905237465835L223.3540572859446,32.651758254542074L223.42326428572338,32.651758254542074L223.46940228557588,32.651758254542074L223.53860928535462,32.651758254542074L223.56167828528086,32.651758254542074L223.65395428498584,32.651758254542074L224.39216228262583,32.77187960311494L224.7151282815933,32.891905237465835L225.33799127960202,32.891905237465835L225.47640527915954,32.891905237465835L225.56868127886455,32.891905237465835L225.98392327753703,32.891905237465835L226.09926827716828,32.891905237465835L226.445303276062,32.891905237465835L226.51451027584076,32.891905237465835L226.5837172756195,32.891905237465835L227.06816627407076,32.891905237465835L227.3219252732595,32.891905237465835L227.62182227230073,32.891905237465835L227.64489127222697,32.891905237465835L227.87558127148947,32.891905237465835L227.9447882712682,33.01193087181673L228.0370642709732,33.01193087181673L228.42923726971947,32.891905237465835L228.47537526957194,32.891905237465835L228.54458226935068,32.891905237465835L229.02903126780194,32.891905237465835L229.07516926765442,32.891905237465835L229.19051426728566,32.891905237465835L229.4442732664744,32.891905237465835L229.62882526588442,32.891905237465835L229.7211012655894,32.891905237465835L230.11327426433564,32.77187960311494L230.25168826389313,32.77187960311494L230.48237826315562,32.77187960311494L230.52851626300813,32.77187960311494L230.66693026256561,32.77187960311494L230.78227526219686,32.77187960311494L230.89762026182808,32.77187960311494L230.96682726160685,32.77187960311494L231.3128622605006,32.77187960311494L231.33593126042683,32.77187960311494L231.95879425843557,32.651758254542074L232.14334625784556,32.651758254542074L232.37403625710806,32.651758254542074L232.6277952562968,32.651758254542074L233.11224425474802,32.651758254542074L233.50441725349427,32.651758254542074L233.5274862534205,32.651758254542074L234.26569425106047,32.651758254542074L234.28876325098676,32.651758254542074L234.42717725054422,32.651758254542074L235.62676524670917,32.651758254542074L235.6729032465617,32.651758254542074L235.83438624604543,32.651758254542074L235.90359324582417,32.651758254542074L236.06507624530792,32.651758254542074L236.68793924331663,32.651758254542074L237.1723882417679,32.53173262019118L237.40307824103039,32.53173262019118L237.77218223985037,32.53173262019118L237.81832023970284,32.53173262019118L237.86445823955535,32.53173262019118L237.97980323918662,32.53173262019118L238.71801123682656,32.41170698584028L238.83335623645783,32.41170698584028L239.08711523564656,32.41170698584028L239.11018423557283,32.41170698584028L239.13325323549907,32.41170698584028L239.2024602352778,32.41170698584028L239.5715642340978,32.29168135148939L240.19442723210653,32.29168135148939L240.26363423188528,32.29168135148939L240.72501423041027,32.29168135148939L240.86342822996775,32.41170698584028L240.886497229894,32.17165571713849L241.48629122797647,32.29168135148939L241.64777422746022,32.41170698584028L241.809257226944,32.41170698584028L242.5705342245102,32.41170698584028L242.6397412242889,32.41170698584028L243.07805222288766,32.41170698584028L243.10112122281393,32.41170698584028L243.30874222215016,32.41170698584028L243.4702252216339,32.41170698584028L243.53943222141268,32.41170698584028L243.7009152208964,32.17165571713849L243.77012222067518,32.17165571713849L244.20843321927387,32.17165571713849L244.2776402190526,32.17165571713849L244.53139921824138,32.17165571713849L244.7851582174301,32.17165571713849L245.0158482166926,32.29168135148939L245.0619862165451,32.17165571713849L245.08505521647135,32.41170698584028L245.1542622162501,32.17165571713849L245.70791821448006,32.051534368565626L245.82326321411134,32.051534368565626L245.84633221403757,32.051534368565626L245.93860821374255,31.93150873421473L246.3769192123413,31.93150873421473L246.39998821226757,31.93150873421473L246.6076092116038,31.93150873421473L246.7921612110138,31.93150873421473L247.06898921012876,31.93150873421473L247.9225422074,31.93150873421473L247.99174920717877,31.93150873421473L248.19937020651497,31.93150873421473L248.22243920644124,31.93150873421473L248.36085320599875,31.811483099863835L248.40699120585123,31.811483099863835L248.61461220518748,31.811483099863835L249.42202720260622,31.811483099863835L249.53737220223744,31.811483099863835L250.06795920054117,31.811483099863835L250.1371662003199,31.811483099863835L250.20637320009868,31.811483099863835L250.4139941994349,31.811483099863835L251.0599261973699,31.811483099863835L251.6135821955999,31.811483099863835L251.84427219486236,31.811483099863835L253.11306719080608,31.93150873421473L253.2514811903636,31.93150873421473L253.34375719006857,31.93150873421473L253.41296418984732,31.93150873421473L253.66672318903605,31.93150873421473L253.7359301888148,31.93150873421473" fill="none"></path></g></g></g></g></g><g><g><circle r="4" cx="253.7359301888148" cy="31.92592110686624" style="stroke: none;" fill="rgb(255, 112, 67)" stroke="none" stroke-width="1px"></circle></g></g></g><g transform="translate(53, 176)" clip-path="url(#clip_1)"><clipPath id="clip_1"><rect width="276" height="23"></rect></clipPath><g><g><line x1="0" y1="0" x2="0" y2="5" style="visibility: inherit;" fill="rgb(0, 0, 0)" stroke="rgb(204, 204, 204)" stroke-width="1px"></line><line x1="23.068999926249184" y1="0" x2="23.068999926249184" y2="5" style="visibility: inherit;" fill="rgb(0, 0, 0)" stroke="rgb(204, 204, 204)" stroke-width="1px"></line><line x1="46.13799985249837" y1="0" x2="46.13799985249837" y2="5" style="visibility: inherit;" fill="rgb(0, 0, 0)" stroke="rgb(204, 204, 204)" stroke-width="1px"></line><line x1="69.20699977874756" y1="0" x2="69.20699977874756" y2="5" style="visibility: inherit;" fill="rgb(0, 0, 0)" stroke="rgb(204, 204, 204)" stroke-width="1px"></line><line x1="92.27599970499674" y1="0" x2="92.27599970499674" y2="5" style="visibility: inherit;" fill="rgb(0, 0, 0)" stroke="rgb(204, 204, 204)" stroke-width="1px"></line><line x1="115.34499963124594" y1="0" x2="115.34499963124594" y2="5" style="visibility: inherit;" fill="rgb(0, 0, 0)" stroke="rgb(204, 204, 204)" stroke-width="1px"></line><line x1="138.41399955749512" y1="0" x2="138.41399955749512" y2="5" style="visibility: inherit;" fill="rgb(0, 0, 0)" stroke="rgb(204, 204, 204)" stroke-width="1px"></line><line x1="161.48299948374432" y1="0" x2="161.48299948374432" y2="5" style="visibility: inherit;" fill="rgb(0, 0, 0)" stroke="rgb(204, 204, 204)" stroke-width="1px"></line><line x1="184.55199940999347" y1="0" x2="184.55199940999347" y2="5" style="visibility: inherit;" fill="rgb(0, 0, 0)" stroke="rgb(204, 204, 204)" stroke-width="1px"></line><line x1="207.62099933624268" y1="0" x2="207.62099933624268" y2="5" style="visibility: inherit;" fill="rgb(0, 0, 0)" stroke="rgb(204, 204, 204)" stroke-width="1px"></line><line x1="230.68999926249188" y1="0" x2="230.68999926249188" y2="5" style="visibility: inherit;" fill="rgb(0, 0, 0)" stroke="rgb(204, 204, 204)" stroke-width="1px"></line><line x1="253.75899918874103" y1="0" x2="253.75899918874103" y2="5" style="visibility: inherit;" fill="rgb(0, 0, 0)" stroke="rgb(204, 204, 204)" stroke-width="1px"></line><line x1="276.82799911499023" y1="0" x2="276.82799911499023" y2="5" style="visibility: inherit;" fill="rgb(0, 0, 0)" stroke="rgb(204, 204, 204)" stroke-width="1px"></line></g><g transform="translate(0, 8)"><text style="text-anchor: middle; visibility: hidden; font-family: &quot;Helvetica Neue&quot;, sans-serif; font-size: 12px; font-weight: 200;" x="0" y="0" dx="0em" dy="0.95em" fill="rgb(50, 49, 63)" stroke="none" stroke-width="1px">-1k</text><text style="text-anchor: middle; visibility: inherit; font-family: &quot;Helvetica Neue&quot;, sans-serif; font-size: 12px; font-weight: 200;" x="23.068999926249184" y="0" dx="0em" dy="0.95em" fill="rgb(50, 49, 63)" stroke="none" stroke-width="1px">0</text><text style="text-anchor: middle; visibility: inherit; font-family: &quot;Helvetica Neue&quot;, sans-serif; font-size: 12px; font-weight: 200;" x="46.13799985249837" y="0" dx="0em" dy="0.95em" fill="rgb(50, 49, 63)" stroke="none" stroke-width="1px">1k</text><text style="text-anchor: middle; visibility: inherit; font-family: &quot;Helvetica Neue&quot;, sans-serif; font-size: 12px; font-weight: 200;" x="69.20699977874756" y="0" dx="0em" dy="0.95em" fill="rgb(50, 49, 63)" stroke="none" stroke-width="1px">2k</text><text style="text-anchor: middle; visibility: inherit; font-family: &quot;Helvetica Neue&quot;, sans-serif; font-size: 12px; font-weight: 200;" x="92.27599970499674" y="0" dx="0em" dy="0.95em" fill="rgb(50, 49, 63)" stroke="none" stroke-width="1px">3k</text><text style="text-anchor: middle; visibility: inherit; font-family: &quot;Helvetica Neue&quot;, sans-serif; font-size: 12px; font-weight: 200;" x="115.34499963124594" y="0" dx="0em" dy="0.95em" fill="rgb(50, 49, 63)" stroke="none" stroke-width="1px">4k</text><text style="text-anchor: middle; visibility: inherit; font-family: &quot;Helvetica Neue&quot;, sans-serif; font-size: 12px; font-weight: 200;" x="138.41399955749512" y="0" dx="0em" dy="0.95em" fill="rgb(50, 49, 63)" stroke="none" stroke-width="1px">5k</text><text style="text-anchor: middle; visibility: inherit; font-family: &quot;Helvetica Neue&quot;, sans-serif; font-size: 12px; font-weight: 200;" x="161.48299948374432" y="0" dx="0em" dy="0.95em" fill="rgb(50, 49, 63)" stroke="none" stroke-width="1px">6k</text><text style="text-anchor: middle; visibility: inherit; font-family: &quot;Helvetica Neue&quot;, sans-serif; font-size: 12px; font-weight: 200;" x="184.55199940999347" y="0" dx="0em" dy="0.95em" fill="rgb(50, 49, 63)" stroke="none" stroke-width="1px">7k</text><text style="text-anchor: middle; visibility: inherit; font-family: &quot;Helvetica Neue&quot;, sans-serif; font-size: 12px; font-weight: 200;" x="207.62099933624268" y="0" dx="0em" dy="0.95em" fill="rgb(50, 49, 63)" stroke="none" stroke-width="1px">8k</text><text style="text-anchor: middle; visibility: inherit; font-family: &quot;Helvetica Neue&quot;, sans-serif; font-size: 12px; font-weight: 200;" x="230.68999926249188" y="0" dx="0em" dy="0.95em" fill="rgb(50, 49, 63)" stroke="none" stroke-width="1px">9k</text><text style="text-anchor: middle; visibility: inherit; font-family: &quot;Helvetica Neue&quot;, sans-serif; font-size: 12px; font-weight: 200;" x="253.75899918874103" y="0" dx="0em" dy="0.95em" fill="rgb(50, 49, 63)" stroke="none" stroke-width="1px">10k</text><text style="text-anchor: middle; visibility: hidden; font-family: &quot;Helvetica Neue&quot;, sans-serif; font-size: 12px; font-weight: 200;" x="276.82799911499023" y="0" dx="0em" dy="0.95em" fill="rgb(50, 49, 63)" stroke="none" stroke-width="1px">11k</text></g><line x1="0" y1="0" x2="276.82799911499023" y2="0" fill="rgb(0, 0, 0)" stroke="rgb(204, 204, 204)" stroke-width="1px"></line></g></g></g></g></svg>