<svg viewBox="0 0 330 200" xmlns="http://www.w3.org/2000/svg"><g><g><g><g><g><line x1="63.984375" y1="177" x2="58.984375" y2="177" style="visibility: inherit;" fill="rgb(0, 0, 0)" stroke="rgb(204, 204, 204)" stroke-width="1px"></line><line x1="63.984375" y1="157.33333333333334" x2="58.984375" y2="157.33333333333334" style="visibility: inherit;" fill="rgb(0, 0, 0)" stroke="rgb(204, 204, 204)" stroke-width="1px"></line><line x1="63.984375" y1="137.66666666666666" x2="58.984375" y2="137.66666666666666" style="visibility: inherit;" fill="rgb(0, 0, 0)" stroke="rgb(204, 204, 204)" stroke-width="1px"></line><line x1="63.984375" y1="118" x2="58.984375" y2="118" style="visibility: inherit;" fill="rgb(0, 0, 0)" stroke="rgb(204, 204, 204)" stroke-width="1px"></line><line x1="63.984375" y1="98.33333333333333" x2="58.984375" y2="98.33333333333333" style="visibility: inherit;" fill="rgb(0, 0, 0)" stroke="rgb(204, 204, 204)" stroke-width="1px"></line><line x1="63.984375" y1="78.66666666666666" x2="58.984375" y2="78.66666666666666" style="visibility: inherit;" fill="rgb(0, 0, 0)" stroke="rgb(204, 204, 204)" stroke-width="1px"></line><line x1="63.984375" y1="59" x2="58.984375" y2="59" style="visibility: inherit;" fill="rgb(0, 0, 0)" stroke="rgb(204, 204, 204)" stroke-width="1px"></line><line x1="63.984375" y1="39.33333333333334" x2="58.984375" y2="39.33333333333334" style="visibility: inherit;" fill="rgb(0, 0, 0)" stroke="rgb(204, 204, 204)" stroke-width="1px"></line><line x1="63.984375" y1="19.666666666666686" x2="58.984375" y2="19.666666666666686" style="visibility: inherit;" fill="rgb(0, 0, 0)" stroke="rgb(204, 204, 204)" stroke-width="1px"></line><line x1="63.984375" y1="0" x2="58.984375" y2="0" style="visibility: inherit;" fill="rgb(0, 0, 0)" stroke="rgb(204, 204, 204)" stroke-width="1px"></line></g><g transform="translate(53.984375, 0)"><text x="0" y="177" dx="0em" dy="0.3em" style="text-anchor: end; visibility: hidden; font-family: &quot;Helvetica Neue&quot;, sans-serif; font-size: 12px; font-weight: 200;" fill="rgb(50, 49, 63)" stroke="none" stroke-width="1px">-0.05</text><text x="0" y="157.33333333333334" dx="0em" dy="0.3em" style="text-anchor: end; visibility: inherit; font-family: &quot;Helvetica Neue&quot;, sans-serif; font-size: 12px; font-weight: 200;" fill="rgb(50, 49, 63)" stroke="none" stroke-width="1px">0</text><text x="0" y="137.66666666666666" dx="0em" dy="0.3em" style="text-anchor: end; visibility: hidden; font-family: &quot;Helvetica Neue&quot;, sans-serif; font-size: 12px; font-weight: 200;" fill="rgb(50, 49, 63)" stroke="none" stroke-width="1px">0.05</text><text x="0" y="118" dx="0em" dy="0.3em" style="text-anchor: end; visibility: inherit; font-family: &quot;Helvetica Neue&quot;, sans-serif; font-size: 12px; font-weight: 200;" fill="rgb(50, 49, 63)" stroke="none" stroke-width="1px">0.1</text><text x="0" y="98.33333333333333" dx="0em" dy="0.3em" style="text-anchor: end; visibility: hidden; font-family: &quot;Helvetica Neue&quot;, sans-serif; font-size: 12px; font-weight: 200;" fill="rgb(50, 49, 63)" stroke="none" stroke-width="1px">0.15</text><text x="0" y="78.66666666666666" dx="0em" dy="0.3em" style="text-anchor: end; visibility: inherit; font-family: &quot;Helvetica Neue&quot;, sans-serif; font-size: 12px; font-weight: 200;" fill="rgb(50, 49, 63)" stroke="none" stroke-width="1px">0.2</text><text x="0" y="59" dx="0em" dy="0.3em" style="text-anchor: end; visibility: hidden; font-family: &quot;Helvetica Neue&quot;, sans-serif; font-size: 12px; font-weight: 200;" fill="rgb(50, 49, 63)" stroke="none" stroke-width="1px">0.25</text><text x="0" y="39.33333333333334" dx="0em" dy="0.3em" style="text-anchor: end; visibility: inherit; font-family: &quot;Helvetica Neue&quot;, sans-serif; font-size: 12px; font-weight: 200;" fill="rgb(50, 49, 63)" stroke="none" stroke-width="1px">0.3</text><text x="0" y="19.666666666666686" dx="0em" dy="0.3em" style="text-anchor: end; visibility: hidden; font-family: &quot;Helvetica Neue&quot;, sans-serif; font-size: 12px; font-weight: 200;" fill="rgb(50, 49, 63)" stroke="none" stroke-width="1px">0.35</text><text x="0" y="0" dx="0em" dy="0.3em" style="text-anchor: end; visibility: hidden; font-family: &quot;Helvetica Neue&quot;, sans-serif; font-size: 12px; font-weight: 200;" fill="rgb(50, 49, 63)" stroke="none" stroke-width="1px">0.4</text></g><line x1="63.984375" y1="0" x2="63.984375" y2="177" fill="rgb(0, 0, 0)" stroke="rgb(204, 204, 204)" stroke-width="1px"></line></g></g><g transform="translate(63, 0)" clip-path="url(#clip_0)"><clipPath id="clip_0"><rect width="266" height="177"></rect></clipPath><g><g><g><line x1="0" y1="0" x2="0" y2="177" fill="rgb(0, 0, 0)" stroke="rgb(60, 60, 60)" stroke-width="1px" opacity="0.25"></line><line x1="26.6015625" y1="0" x2="26.6015625" y2="177" fill="rgb(0, 0, 0)" stroke="rgb(60, 60, 60)" stroke-width="1px" opacity="0.25"></line><line x1="53.203125" y1="0" x2="53.203125" y2="177" fill="rgb(0, 0, 0)" stroke="rgb(60, 60, 60)" stroke-width="1px" opacity="0.25"></line><line x1="79.8046875" y1="0" x2="79.8046875" y2="177" fill="rgb(0, 0, 0)" stroke="rgb(60, 60, 60)" stroke-width="1px" opacity="0.25"></line><line x1="106.40625" y1="0" x2="106.40625" y2="177" fill="rgb(0, 0, 0)" stroke="rgb(60, 60, 60)" stroke-width="1px" opacity="0.25"></line><line x1="133.0078125" y1="0" x2="133.0078125" y2="177" fill="rgb(0, 0, 0)" stroke="rgb(60, 60, 60)" stroke-width="1px" opacity="0.25"></line><line x1="159.609375" y1="0" x2="159.609375" y2="177" fill="rgb(0, 0, 0)" stroke="rgb(60, 60, 60)" stroke-width="1px" opacity="0.25"></line><line x1="186.2109375" y1="0" x2="186.2109375" y2="177" fill="rgb(0, 0, 0)" stroke="rgb(60, 60, 60)" stroke-width="1px" opacity="0.25"></line><line x1="212.8125" y1="0" x2="212.8125" y2="177" fill="rgb(0, 0, 0)" stroke="rgb(60, 60, 60)" stroke-width="1px" opacity="0.25"></line><line x1="239.4140625" y1="0" x2="239.4140625" y2="177" fill="rgb(0, 0, 0)" stroke="rgb(60, 60, 60)" stroke-width="1px" opacity="0.25"></line><line x1="266.015625" y1="0" x2="266.015625" y2="177" fill="rgb(0, 0, 0)" stroke="rgb(60, 60, 60)" stroke-width="1px" opacity="0.25"></line></g><g><line x1="0" y1="177" x2="266.015625" y2="177" fill="rgb(0, 0, 0)" stroke="rgb(60, 60, 60)" stroke-width="1px" opacity="0.25"></line><line x1="0" y1="157.33333333333334" x2="266.015625" y2="157.33333333333334" fill="rgb(0, 0, 0)" stroke="rgb(60, 60, 60)" stroke-width="1px" opacity="0.25"></line><line x1="0" y1="137.66666666666666" x2="266.015625" y2="137.66666666666666" fill="rgb(0, 0, 0)" stroke="rgb(60, 60, 60)" stroke-width="1px" opacity="0.25"></line><line x1="0" y1="118" x2="266.015625" y2="118" fill="rgb(0, 0, 0)" stroke="rgb(60, 60, 60)" stroke-width="1px" opacity="0.25"></line><line x1="0" y1="98.33333333333333" x2="266.015625" y2="98.33333333333333" fill="rgb(0, 0, 0)" stroke="rgb(60, 60, 60)" stroke-width="1px" opacity="0.25"></line><line x1="0" y1="78.66666666666666" x2="266.015625" y2="78.66666666666666" fill="rgb(0, 0, 0)" stroke="rgb(60, 60, 60)" stroke-width="1px" opacity="0.25"></line><line x1="0" y1="59" x2="266.015625" y2="59" fill="rgb(0, 0, 0)" stroke="rgb(60, 60, 60)" stroke-width="1px" opacity="0.25"></line><line x1="0" y1="39.33333333333334" x2="266.015625" y2="39.33333333333334" fill="rgb(0, 0, 0)" stroke="rgb(60, 60, 60)" stroke-width="1px" opacity="0.25"></line><line x1="0" y1="19.666666666666686" x2="266.015625" y2="19.666666666666686" fill="rgb(0, 0, 0)" stroke="rgb(60, 60, 60)" stroke-width="1px" opacity="0.25"></line><line x1="0" y1="0" x2="266.015625" y2="0" fill="rgb(0, 0, 0)" stroke="rgb(60, 60, 60)" stroke-width="1px" opacity="0.25"></line></g></g></g><g><g><line x1="0" y1="157.33333333333334" x2="266.015625" y2="157.33333333333334" fill="rgb(0, 0, 0)" stroke="rgb(153, 153, 153)" stroke-width="1.5px"></line></g></g><g><g><line x1="26.6015625" y1="0" x2="26.6015625" y2="177" fill="rgb(0, 0, 0)" stroke="rgb(153, 153, 153)" stroke-width="1.5px"></line></g></g><g><g><g><g><g><path stroke="rgb(255, 112, 67)" stroke-width="2px" d="M31.921875,-11.144419899258168L33.251953125,2.6508737770440973L34.58203125,14.667049805373523L35.912109375,24.97284795613251L37.2421875,34.46240874999782L38.572265625,42.55557673942664L39.90234375,49.955768545682744L41.232421875,55.984837227172775L42.5625,61.683785932249364L43.892578125,66.633378645237L45.22265625,70.78483325552182L46.552734375,74.81389746315512L47.8828125,78.34494501384133L49.212890625,81.74491439988388L50.54296875,84.52688852063658L51.873046875,86.75453825524006L53.203125,88.9427510494982L54.533203125,91.31114941014197L55.86328125,92.98790303141149L57.193359375,94.5396199037806L58.5234375,96.35189351949288L59.853515625,97.31967554776725L61.18359375,98.79674249442856L62.513671875,99.77637992590134L63.84375,101.18071994643132L65.173828125,102.43425645801096L66.50390625,103.38989283028899L67.833984375,104.42506079995027L69.1640625,104.83917477393773L70.494140625,106.0013383880317L71.82421875,106.68263566801276L73.154296875,107.45114868664277L74.484375,108.36232864496863L75.814453125,109.12345057792612L77.14453125,109.31722890619187L78.474609375,109.93950544251982L79.8046875,110.68328381312331L81.134765625,111.10895133078182L82.46484375,111.63928776235844L83.794921875,112.41440756285584L85.125,113.15223150954999L86.455078125,114.11935106625047L87.78515625,114.90019161531204L89.115234375,115.15997313477507L90.4453125,115.94484257113746L91.775390625,116.23071450042048L93.10546875,116.38106845248208L94.435546875,116.58359635926425L95.765625,116.88651018375492L97.095703125,117.40681454957183L98.42578125,117.88585397454526L99.755859375,118.34811259618871L101.0859375,118.46543096688276L102.416015625,119.14114709210534L103.74609375,119.42880452580538L105.076171875,119.23272142951063L106.40625,119.18872948176286L107.736328125,119.8777102133828L109.06640625,120.49556277004069L110.396484375,120.63102756623738L111.7265625,120.52806437423416L113.056640625,120.90522481845173L114.38671875,120.97501150675429L115.716796875,121.14109713578907L117.046875,121.02829333987646L118.376953125,121.51974699604598L119.70703125,121.76526501402111L121.037109375,122.29043190056993L122.3671875,122.79926677768375L123.697265625,122.83134323095251L125.02734375,123.40648383538903L126.357421875,123.72304445489833L127.6875,123.63719855935129L129.017578125,123.70561077907138L130.34765625,123.57374324827066L131.677734375,124.07650802788339L133.0078125,124.55076994651876L134.337890625,124.97292048625741L135.66796875,125.64878374075448L136.998046875,125.9260040466123L138.328125,126.43115253512859L139.658203125,126.81151467918238L140.98828125,127.09830568845399L142.318359375,127.209929839464L143.6484375,127.62343504569449L144.978515625,128.1500716480107L146.30859375,128.52558386757914L147.638671875,128.9710736777481L148.96875,128.9616850280422L150.298828125,129.0984079756533L151.62890625,129.04044529506731L152.958984375,129.59357939189178L154.2890625,129.98332554911872L155.619140625,130.3437090366004L156.94921875,131.01510693921156L158.279296875,131.4303982235601L159.609375,131.6904899226195L160.939453125,131.99432847976087L162.26953125,132.06472635713854L163.599609375,132.137054918891L164.9296875,132.36031586648176L166.259765625,132.62354830337256L167.58984375,132.89230168123657L168.919921875,133.44718968625634L170.25,133.63873812609376L171.580078125,133.62610159746882L172.91015625,133.6521601841772L174.240234375,134.15773601924923L175.5703125,134.14778337436246L176.900390625,134.16001057559646L178.23046875,134.11106487274805L179.560546875,134.54117260074997L180.890625,134.7061444284303L182.220703125,134.64598395795323L183.55078125,134.7761337520919L184.880859375,134.9238649107362L186.2109375,135.00105624580453L187.541015625,135.4152966212277L188.87109375,135.5343334637708L190.201171875,135.84387425756216L191.53125,136.07075788682158L192.861328125,135.88857572737606L194.19140625,135.4915403671857L195.521484375,135.77443925228494L196.8515625,136.05697414489654L198.181640625,136.2878100507184L199.51171875,135.98578135367578L200.841796875,136.37367863176075L202.171875,136.63298312654777L203.501953125,136.835795341913L204.83203125,136.7154774719382L206.162109375,137.19231810692378L207.4921875,137.1417572152024L208.822265625,137.20950482198035L210.15234375,137.17767180348497L211.482421875,137.19996207363442L212.8125,137.08557957057377L214.142578125,137.36469931191738L215.47265625,137.50708437633435L216.802734375,137.65759088201474L218.1328125,137.85717132848393L219.462890625,137.53993709382547L220.79296875,137.51193560459495L222.123046875,137.43180644491284L223.453125,137.5018557885029L224.783203125,137.60678052378125L226.11328125,137.27859622521655L227.443359375,137.8163639840491L228.7734375,138.03468433441762L230.103515625,137.90435952994454L231.43359375,138.14244376055336L232.763671875,138.08468562820713L234.09375,138.2739080794205L235.423828125,137.92896865253942L236.75390625,137.9505958424725L238.083984375,137.89108471274682" style="fill: none;" fill="none"></path></g></g></g></g><g opacity="0.2"><g><g><g><path stroke="rgb(255, 112, 67)" stroke-width="2px" d="M30.591796875,-5.2442542314529135L31.921875,9.42759120464325L33.251953125,21.734731237093598L34.58203125,31.85037378470105L35.912109375,39.99880059560141L37.2421875,48.45766766866049L38.572265625,54.57298799355824L39.90234375,60.98893706003825L41.232421875,64.99563032388687L42.5625,70.2136009335518L43.892578125,74.04807094732921L45.22265625,77.00713529189427L46.552734375,80.85465216636658L47.8828125,83.64002211888632L49.212890625,86.84400522708893L50.54296875,88.69942589600882L51.873046875,90.09580924113592L53.203125,92.22495023409526L54.533203125,94.8636690179507L55.86328125,95.5030003587405L57.193359375,96.86717683076859L58.5234375,99.0702910621961L59.853515625,98.7713444630305L61.18359375,101.01233913501105L62.513671875,101.2458345691363L63.84375,103.28722868363063L65.173828125,104.31456053256989L66.50390625,104.8233470718066L67.833984375,105.97781254847845L69.1640625,105.46034568548203L70.494140625,107.74458372592926L71.82421875,107.70458155870438L73.154296875,108.60391819477081L74.484375,109.72909856836002L75.814453125,110.26513347029687L77.14453125,109.60789639751117L78.474609375,110.87292024493219L79.8046875,111.79895136753719L81.134765625,111.74745260675748L82.46484375,112.43479240934055L83.794921875,113.57708726326626L85.125,114.25896742939949L86.455078125,115.57003040115039L87.78515625,116.07145243883133L89.115234375,115.54964541395506L90.4453125,117.1221467256546L91.775390625,116.65952239433925L93.10546875,116.60659938057265L94.435546875,116.88738821943602L95.765625,117.34088092048964L97.095703125,118.18727109829585L98.42578125,118.60441311200461L99.755859375,119.04150052865347L101.0859375,118.6414085229238L102.416015625,120.15472127993903L103.74609375,119.86029067635536L105.076171875,118.93859678506851L106.40625,119.12274156014125L107.736328125,120.91118131081264L109.06640625,121.42234160502753L110.396484375,120.83422476053238L111.7265625,120.37361958622932L113.056640625,121.47096548477809L114.38671875,121.0796915392081L115.716796875,121.39022557934126L117.046875,120.85908764600754L118.376953125,122.25692748030028L119.70703125,122.13354204098384L121.037109375,123.0781822303931L122.3671875,123.56251909335455L123.697265625,122.87945791085562L125.02734375,124.26919474204382L126.357421875,124.19788538416228L127.6875,123.50842971603078L129.017578125,123.80822910865149L130.34765625,123.37594195206961L131.677734375,124.8306551973025L133.0078125,125.2621628244718L134.337890625,125.60614629586539L135.66796875,126.6625786225001L136.998046875,126.34183450539908L138.328125,127.18887526790301L139.658203125,127.38205789526305L140.98828125,127.52849220236143L142.318359375,127.377366065979L143.6484375,128.24369285504025L144.978515625,128.94002655148506L146.30859375,129.08885219693184L147.638671875,129.63930839300156L148.96875,128.94760205348334L150.298828125,129.30349239706993L151.62890625,128.95350127418837L152.958984375,130.42328053712845L154.2890625,130.56794478495917L155.619140625,130.88428426782292L156.94921875,132.0222037931283L158.279296875,132.05333515008292L159.609375,132.08062747120857L160.939453125,132.4500863154729L162.26953125,132.17032317320505L163.599609375,132.24554776151973L164.9296875,132.69520728786787L166.259765625,133.01839695870876L167.58984375,133.29543174803257L168.919921875,134.279521693786L170.25,133.92606078584987L171.580078125,133.6071468045314L172.91015625,133.69124806423983L174.240234375,134.91609977185726L175.5703125,134.1328544070323L176.900390625,134.17835137744743L178.23046875,134.03764631847542L179.560546875,135.18633419275284L180.890625,134.9536021699508L182.220703125,134.55574325223765L183.55078125,134.97135844329992L184.880859375,135.14546164870262L186.2109375,135.11684324840704L187.541015625,136.0366571843624L188.87109375,135.71288872758547L190.201171875,136.3081854482492L191.53125,136.41108333071074L192.861328125,135.61530248820782L194.19140625,134.89598732690015L195.521484375,136.1987875799338L196.8515625,136.4807764838139L198.181640625,136.63406390945116L199.51171875,135.53273830811182L200.841796875,136.9555245488882L202.171875,137.0219398687283L203.501953125,137.14001366496086L204.83203125,136.53500066697598L206.162109375,137.90757905940217L207.4921875,137.06591587762037L208.822265625,137.31112623214722L210.15234375,137.1299222757419L211.482421875,137.23339747885862L212.8125,136.91400581598282L214.142578125,137.78337892393273L215.47265625,137.72066197295985L216.802734375,137.88335064053535L218.1328125,138.1565419981877L219.462890625,137.0640857418378L220.79296875,137.46993337074915L222.123046875,137.31161270538965L223.453125,137.60692980388802L224.783203125,137.76416762669882L226.11328125,136.7863197773695L227.443359375,138.62301562229794L228.7734375,138.36216485997042L230.103515625,137.70887232323489L231.43359375,138.49957010646662L232.763671875,137.99804842968783L234.09375,138.55774175624052L235.423828125,137.41155951221785L236.75390625,137.98303662737212L238.083984375,137.8018180181583" style="fill: none;" fill="none"></path></g></g></g></g></g></g><g transform="translate(63, 177)" clip-path="url(#clip_1)"><clipPath id="clip_1"><rect width="266" height="23"></rect></clipPath><g><g><line x1="0" y1="0" x2="0" y2="5" style="visibility: inherit;" fill="rgb(0, 0, 0)" stroke="rgb(204, 204, 204)" stroke-width="1px"></line><line x1="26.6015625" y1="0" x2="26.6015625" y2="5" style="visibility: inherit;" fill="rgb(0, 0, 0)" stroke="rgb(204, 204, 204)" stroke-width="1px"></line><line x1="53.203125" y1="0" x2="53.203125" y2="5" style="visibility: inherit;" fill="rgb(0, 0, 0)" stroke="rgb(204, 204, 204)" stroke-width="1px"></line><line x1="79.8046875" y1="0" x2="79.8046875" y2="5" style="visibility: inherit;" fill="rgb(0, 0, 0)" stroke="rgb(204, 204, 204)" stroke-width="1px"></line><line x1="106.40625" y1="0" x2="106.40625" y2="5" style="visibility: inherit;" fill="rgb(0, 0, 0)" stroke="rgb(204, 204, 204)" stroke-width="1px"></line><line x1="133.0078125" y1="0" x2="133.0078125" y2="5" style="visibility: inherit;" fill="rgb(0, 0, 0)" stroke="rgb(204, 204, 204)" stroke-width="1px"></line><line x1="159.609375" y1="0" x2="159.609375" y2="5" style="visibility: inherit;" fill="rgb(0, 0, 0)" stroke="rgb(204, 204, 204)" stroke-width="1px"></line><line x1="186.2109375" y1="0" x2="186.2109375" y2="5" style="visibility: inherit;" fill="rgb(0, 0, 0)" stroke="rgb(204, 204, 204)" stroke-width="1px"></line><line x1="212.8125" y1="0" x2="212.8125" y2="5" style="visibility: inherit;" fill="rgb(0, 0, 0)" stroke="rgb(204, 204, 204)" stroke-width="1px"></line><line x1="239.4140625" y1="0" x2="239.4140625" y2="5" style="visibility: inherit;" fill="rgb(0, 0, 0)" stroke="rgb(204, 204, 204)" stroke-width="1px"></line><line x1="266.015625" y1="0" x2="266.015625" y2="5" style="visibility: inherit;" fill="rgb(0, 0, 0)" stroke="rgb(204, 204, 204)" stroke-width="1px"></line></g><g transform="translate(0, 8)"><text x="0" y="0" dx="0em" dy="0.95em" style="text-anchor: middle; visibility: hidden; font-family: &quot;Helvetica Neue&quot;, sans-serif; font-size: 12px; font-weight: 200;" fill="rgb(50, 49, 63)" stroke="none" stroke-width="1px">-20</text><text x="26.6015625" y="0" dx="0em" dy="0.95em" style="text-anchor: middle; visibility: inherit; font-family: &quot;Helvetica Neue&quot;, sans-serif; font-size: 12px; font-weight: 200;" fill="rgb(50, 49, 63)" stroke="none" stroke-width="1px">0</text><text x="53.203125" y="0" dx="0em" dy="0.95em" style="text-anchor: middle; visibility: inherit; font-family: &quot;Helvetica Neue&quot;, sans-serif; font-size: 12px; font-weight: 200;" fill="rgb(50, 49, 63)" stroke="none" stroke-width="1px">20</text><text x="79.8046875" y="0" dx="0em" dy="0.95em" style="text-anchor: middle; visibility: inherit; font-family: &quot;Helvetica Neue&quot;, sans-serif; font-size: 12px; font-weight: 200;" fill="rgb(50, 49, 63)" stroke="none" stroke-width="1px">40</text><text x="106.40625" y="0" dx="0em" dy="0.95em" style="text-anchor: middle; visibility: inherit; font-family: &quot;Helvetica Neue&quot;, sans-serif; font-size: 12px; font-weight: 200;" fill="rgb(50, 49, 63)" stroke="none" stroke-width="1px">60</text><text x="133.0078125" y="0" dx="0em" dy="0.95em" style="text-anchor: middle; visibility: inherit; font-family: &quot;Helvetica Neue&quot;, sans-serif; font-size: 12px; font-weight: 200;" fill="rgb(50, 49, 63)" stroke="none" stroke-width="1px">80</text><text x="159.609375" y="0" dx="0em" dy="0.95em" style="text-anchor: middle; visibility: inherit; font-family: &quot;Helvetica Neue&quot;, sans-serif; font-size: 12px; font-weight: 200;" fill="rgb(50, 49, 63)" stroke="none" stroke-width="1px">100</text><text x="186.2109375" y="0" dx="0em" dy="0.95em" style="text-anchor: middle; visibility: inherit; font-family: &quot;Helvetica Neue&quot;, sans-serif; font-size: 12px; font-weight: 200;" fill="rgb(50, 49, 63)" stroke="none" stroke-width="1px">120</text><text x="212.8125" y="0" dx="0em" dy="0.95em" style="text-anchor: middle; visibility: inherit; font-family: &quot;Helvetica Neue&quot;, sans-serif; font-size: 12px; font-weight: 200;" fill="rgb(50, 49, 63)" stroke="none" stroke-width="1px">140</text><text x="239.4140625" y="0" dx="0em" dy="0.95em" style="text-anchor: middle; visibility: inherit; font-family: &quot;Helvetica Neue&quot;, sans-serif; font-size: 12px; font-weight: 200;" fill="rgb(50, 49, 63)" stroke="none" stroke-width="1px">160</text><text x="266.015625" y="0" dx="0em" dy="0.95em" style="text-anchor: middle; visibility: hidden; font-family: &quot;Helvetica Neue&quot;, sans-serif; font-size: 12px; font-weight: 200;" fill="rgb(50, 49, 63)" stroke="none" stroke-width="1px">180</text></g><line x1="0" y1="0" x2="266.015625" y2="0" fill="rgb(0, 0, 0)" stroke="rgb(204, 204, 204)" stroke-width="1px"></line></g></g></g></g></svg>